<svg xmlns="http://www.w3.org/2000/svg" width="1666" height="525" viewBox="0 0 1666 525" version="1.1"><path d="M 513.333 12.667 C 513.700 13.033, 514.300 13.033, 514.667 12.667 C 515.033 12.300, 514.733 12, 514 12 C 513.267 12, 512.967 12.300, 513.333 12.667 M 516.333 12.667 C 516.700 13.033, 517.300 13.033, 517.667 12.667 C 518.033 12.300, 517.733 12, 517 12 C 516.267 12, 515.967 12.300, 516.333 12.667 M 533.872 13.750 C 532.629 15.336, 532.664 15.371, 534.250 14.128 C 535.916 12.821, 536.445 12, 535.622 12 C 535.415 12, 534.627 12.787, 533.872 13.750 M 538.813 12.683 C 539.534 12.972, 540.397 12.936, 540.729 12.604 C 541.061 12.272, 540.471 12.036, 539.417 12.079 C 538.252 12.127, 538.015 12.364, 538.813 12.683 M 562.250 12.689 C 563.212 12.941, 564.788 12.941, 565.750 12.689 C 566.712 12.438, 565.925 12.232, 564 12.232 C 562.075 12.232, 561.288 12.438, 562.250 12.689 M 511 13.500 C 511 13.775, 511.225 14, 511.500 14 C 511.775 14, 512 13.775, 512 13.500 C 512 13.225, 511.775 13, 511.500 13 C 511.225 13, 511 13.225, 511 13.500 M 577.750 13.662 C 578.438 13.940, 579.563 13.940, 580.250 13.662 C 580.938 13.385, 580.375 13.158, 579 13.158 C 577.625 13.158, 577.063 13.385, 577.750 13.662 M 587.813 14.683 C 588.534 14.972, 589.397 14.936, 589.729 14.604 C 590.061 14.272, 589.471 14.036, 588.417 14.079 C 587.252 14.127, 587.015 14.364, 587.813 14.683 M 594.813 15.683 C 595.534 15.972, 596.397 15.936, 596.729 15.604 C 597.061 15.272, 596.471 15.036, 595.417 15.079 C 594.252 15.127, 594.015 15.364, 594.813 15.683 M 484.750 16.662 C 485.438 16.940, 486.563 16.940, 487.250 16.662 C 487.938 16.385, 487.375 16.158, 486 16.158 C 484.625 16.158, 484.063 16.385, 484.750 16.662 M 508 16.500 C 508 16.775, 508.225 17, 508.500 17 C 508.775 17, 509 16.775, 509 16.500 C 509 16.225, 508.775 16, 508.500 16 C 508.225 16, 508 16.225, 508 16.500 M 601.333 16.667 C 601.700 17.033, 602.300 17.033, 602.667 16.667 C 603.033 16.300, 602.733 16, 602 16 C 601.267 16, 600.967 16.300, 601.333 16.667 M 481 17.500 C 481 17.775, 481.225 18, 481.500 18 C 481.775 18, 482 17.775, 482 17.500 C 482 17.225, 481.775 17, 481.500 17 C 481.225 17, 481 17.225, 481 17.500 M 490 17.500 C 490 17.775, 490.225 18, 490.500 18 C 490.775 18, 491 17.775, 491 17.500 C 491 17.225, 490.775 17, 490.500 17 C 490.225 17, 490 17.225, 490 17.500 M 606.333 17.667 C 606.700 18.033, 607.300 18.033, 607.667 17.667 C 608.033 17.300, 607.733 17, 607 17 C 606.267 17, 605.967 17.300, 606.333 17.667 M 507.195 20.500 C 507.215 22.150, 507.439 22.704, 507.693 21.731 C 507.947 20.758, 507.930 19.408, 507.656 18.731 C 507.382 18.054, 507.175 18.850, 507.195 20.500 M 539 18.500 C 539 18.775, 539.225 19, 539.500 19 C 539.775 19, 540 18.775, 540 18.500 C 540 18.225, 539.775 18, 539.500 18 C 539.225 18, 539 18.225, 539 18.500 M 611.333 18.667 C 611.700 19.033, 612.300 19.033, 612.667 18.667 C 613.033 18.300, 612.733 18, 612 18 C 611.267 18, 610.967 18.300, 611.333 18.667 M 477.405 20.155 C 476.962 20.870, 477.130 21.038, 477.845 20.595 C 478.998 19.883, 479.393 19, 478.559 19 C 478.316 19, 477.797 19.520, 477.405 20.155 M 492 19.500 C 492 19.775, 492.225 20, 492.500 20 C 492.775 20, 493 19.775, 493 19.500 C 493 19.225, 492.775 19, 492.500 19 C 492.225 19, 492 19.225, 492 19.500 M 616 19.500 C 616 19.775, 616.225 20, 616.500 20 C 616.775 20, 617 19.775, 617 19.500 C 617 19.225, 616.775 19, 616.500 19 C 616.225 19, 616 19.225, 616 19.500 M 620 20.500 C 620 20.775, 620.225 21, 620.500 21 C 620.775 21, 621 20.775, 621 20.500 C 621 20.225, 620.775 20, 620.500 20 C 620.225 20, 620 20.225, 620 20.500 M 520 21.500 C 520 21.775, 520.225 22, 520.500 22 C 520.775 22, 521 21.775, 521 21.500 C 521 21.225, 520.775 21, 520.500 21 C 520.225 21, 520 21.225, 520 21.500 M 624 21.500 C 624 21.775, 624.225 22, 624.500 22 C 624.775 22, 625 21.775, 625 21.500 C 625 21.225, 624.775 21, 624.500 21 C 624.225 21, 624 21.225, 624 21.500 M 627.333 22.667 C 627.700 23.033, 628.300 23.033, 628.667 22.667 C 629.033 22.300, 628.733 22, 628 22 C 627.267 22, 626.967 22.300, 627.333 22.667 M 631 23.500 C 631 23.775, 631.225 24, 631.500 24 C 631.775 24, 632 23.775, 632 23.500 C 632 23.225, 631.775 23, 631.500 23 C 631.225 23, 631 23.225, 631 23.500 M 634 24.500 C 634 24.775, 634.225 25, 634.500 25 C 634.775 25, 635 24.775, 635 24.500 C 635 24.225, 634.775 24, 634.500 24 C 634.225 24, 634 24.225, 634 24.500 M 452 25.500 C 452 25.775, 452.225 26, 452.500 26 C 452.775 26, 453 25.775, 453 25.500 C 453 25.225, 452.775 25, 452.500 25 C 452.225 25, 452 25.225, 452 25.500 M 637 25.500 C 637 25.775, 637.225 26, 637.500 26 C 637.775 26, 638 25.775, 638 25.500 C 638 25.225, 637.775 25, 637.500 25 C 637.225 25, 637 25.225, 637 25.500 M 640 26.500 C 640 26.775, 640.225 27, 640.500 27 C 640.775 27, 641 26.775, 641 26.500 C 641 26.225, 640.775 26, 640.500 26 C 640.225 26, 640 26.225, 640 26.500 M 643 27.500 C 643 27.775, 643.225 28, 643.500 28 C 643.775 28, 644 27.775, 644 27.500 C 644 27.225, 643.775 27, 643.500 27 C 643.225 27, 643 27.225, 643 27.500 M 439.405 29.155 C 438.962 29.870, 439.130 30.038, 439.845 29.595 C 440.480 29.203, 441 28.684, 441 28.441 C 441 27.607, 440.117 28.002, 439.405 29.155 M 646 28.500 C 646 28.775, 646.225 29, 646.500 29 C 646.775 29, 647 28.775, 647 28.500 C 647 28.225, 646.775 28, 646.500 28 C 646.225 28, 646 28.225, 646 28.500 M 458 29.500 C 458 29.775, 458.225 30, 458.500 30 C 458.775 30, 459 29.775, 459 29.500 C 459 29.225, 458.775 29, 458.500 29 C 458.225 29, 458 29.225, 458 29.500 M 648 29.500 C 648 29.775, 648.225 30, 648.500 30 C 648.775 30, 649 29.775, 649 29.500 C 649 29.225, 648.775 29, 648.500 29 C 648.225 29, 648 29.225, 648 29.500 M 651 30.500 C 651 30.775, 651.225 31, 651.500 31 C 651.775 31, 652 30.775, 652 30.500 C 652 30.225, 651.775 30, 651.500 30 C 651.225 30, 651 30.225, 651 30.500 M 653 31.500 C 653 31.775, 653.225 32, 653.500 32 C 653.775 32, 654 31.775, 654 31.500 C 654 31.225, 653.775 31, 653.500 31 C 653.225 31, 653 31.225, 653 31.500 M 656 32.500 C 656 32.775, 656.225 33, 656.500 33 C 656.775 33, 657 32.775, 657 32.500 C 657 32.225, 656.775 32, 656.500 32 C 656.225 32, 656 32.225, 656 32.500 M 436 33.500 C 436 33.775, 436.225 34, 436.500 34 C 436.775 34, 437 33.775, 437 33.500 C 437 33.225, 436.775 33, 436.500 33 C 436.225 33, 436 33.225, 436 33.500 M 460 33.500 C 460 33.775, 460.225 34, 460.500 34 C 460.775 34, 461 33.775, 461 33.500 C 461 33.225, 460.775 33, 460.500 33 C 460.225 33, 460 33.225, 460 33.500 M 658 33.500 C 658 33.775, 658.225 34, 658.500 34 C 658.775 34, 659 33.775, 659 33.500 C 659 33.225, 658.775 33, 658.500 33 C 658.225 33, 658 33.225, 658 33.500 M 660 34.500 C 660 34.775, 660.225 35, 660.500 35 C 660.775 35, 661 34.775, 661 34.500 C 661 34.225, 660.775 34, 660.500 34 C 660.225 34, 660 34.225, 660 34.500 M 662 35.500 C 662 35.775, 662.225 36, 662.500 36 C 662.775 36, 663 35.775, 663 35.500 C 663 35.225, 662.775 35, 662.500 35 C 662.225 35, 662 35.225, 662 35.500 M 696 35.500 C 696 35.775, 696.225 36, 696.500 36 C 696.775 36, 697 35.775, 697 35.500 C 697 35.225, 696.775 35, 696.500 35 C 696.225 35, 696 35.225, 696 35.500 M 435 36.500 C 435 36.775, 435.225 37, 435.500 37 C 435.775 37, 436 36.775, 436 36.500 C 436 36.225, 435.775 36, 435.500 36 C 435.225 36, 435 36.225, 435 36.500 M 672 40.500 C 672 40.775, 672.225 41, 672.500 41 C 672.775 41, 673 40.775, 673 40.500 C 673 40.225, 672.775 40, 672.500 40 C 672.225 40, 672 40.225, 672 40.500 M 674 41.500 C 674 41.775, 674.225 42, 674.500 42 C 674.775 42, 675 41.775, 675 41.500 C 675 41.225, 674.775 41, 674.500 41 C 674.225 41, 674 41.225, 674 41.500 M 707 41.500 C 707 41.775, 707.225 42, 707.500 42 C 707.775 42, 708 41.775, 708 41.500 C 708 41.225, 707.775 41, 707.500 41 C 707.225 41, 707 41.225, 707 41.500 M 676 42.500 C 676 42.775, 676.225 43, 676.500 43 C 676.775 43, 677 42.775, 677 42.500 C 677 42.225, 676.775 42, 676.500 42 C 676.225 42, 676 42.225, 676 42.500 M 712 44.500 C 712 44.775, 712.225 45, 712.500 45 C 712.775 45, 713 44.775, 713 44.500 C 713 44.225, 712.775 44, 712.500 44 C 712.225 44, 712 44.225, 712 44.500 M 681 45.500 C 681 45.775, 681.225 46, 681.500 46 C 681.775 46, 682 45.775, 682 45.500 C 682 45.225, 681.775 45, 681.500 45 C 681.225 45, 681 45.225, 681 45.500 M 686 48.500 C 686 48.775, 686.225 49, 686.500 49 C 686.775 49, 687 48.775, 687 48.500 C 687 48.225, 686.775 48, 686.500 48 C 686.225 48, 686 48.225, 686 48.500 M 689 50.500 C 689 50.775, 689.225 51, 689.500 51 C 689.775 51, 690 50.775, 690 50.500 C 690 50.225, 689.775 50, 689.500 50 C 689.225 50, 689 50.225, 689 50.500 M 721 50.500 C 721 50.775, 721.225 51, 721.500 51 C 721.775 51, 722 50.775, 722 50.500 C 722 50.225, 721.775 50, 721.500 50 C 721.225 50, 721 50.225, 721 50.500 M 692 52.500 C 692 52.775, 692.225 53, 692.500 53 C 692.775 53, 693 52.775, 693 52.500 C 693 52.225, 692.775 52, 692.500 52 C 692.225 52, 692 52.225, 692 52.500 M 696 55.500 C 696 55.775, 696.225 56, 696.500 56 C 696.775 56, 697 55.775, 697 55.500 C 697 55.225, 696.775 55, 696.500 55 C 696.225 55, 696 55.225, 696 55.500 M 729 56.500 C 729 56.775, 729.225 57, 729.500 57 C 729.775 57, 730 56.775, 730 56.500 C 730 56.225, 729.775 56, 729.500 56 C 729.225 56, 729 56.225, 729 56.500 M 700 58.500 C 700 58.775, 700.225 59, 700.500 59 C 700.775 59, 701 58.775, 701 58.500 C 701 58.225, 700.775 58, 700.500 58 C 700.225 58, 700 58.225, 700 58.500 M 734 60.500 C 734 60.775, 734.225 61, 734.500 61 C 734.775 61, 735 60.775, 735 60.500 C 735 60.225, 734.775 60, 734.500 60 C 734.225 60, 734 60.225, 734 60.500 M 705.500 63 C 705.840 63.550, 706.343 64, 706.618 64 C 706.893 64, 706.840 63.550, 706.500 63 C 706.160 62.450, 705.657 62, 705.382 62 C 705.107 62, 705.160 62.450, 705.500 63 M 745 70.500 C 746.866 72.425, 748.617 74, 748.892 74 C 749.167 74, 747.866 72.425, 746 70.500 C 744.134 68.575, 742.383 67, 742.108 67 C 741.833 67, 743.134 68.575, 745 70.500 M 716 72.500 C 717.866 74.425, 719.617 76, 719.892 76 C 720.167 76, 718.866 74.425, 717 72.500 C 715.134 70.575, 713.383 69, 713.108 69 C 712.833 69, 714.134 70.575, 716 72.500 M 755.500 82 C 755.840 82.550, 756.343 83, 756.618 83 C 756.893 83, 756.840 82.550, 756.500 82 C 756.160 81.450, 755.657 81, 755.382 81 C 755.107 81, 755.160 81.450, 755.500 82 M 725.500 83 C 725.840 83.550, 726.343 84, 726.618 84 C 726.893 84, 726.840 83.550, 726.500 83 C 726.160 82.450, 725.657 82, 725.382 82 C 725.107 82, 725.160 82.450, 725.500 83 M 759.500 87 C 759.840 87.550, 760.343 88, 760.618 88 C 760.893 88, 760.840 87.550, 760.500 87 C 760.160 86.450, 759.657 86, 759.382 86 C 759.107 86, 759.160 86.450, 759.500 87 M 730 88.500 C 730 88.775, 730.225 89, 730.500 89 C 730.775 89, 731 88.775, 731 88.500 C 731 88.225, 730.775 88, 730.500 88 C 730.225 88, 730 88.225, 730 88.500 M 762 90.500 C 762 90.775, 762.225 91, 762.500 91 C 762.775 91, 763 90.775, 763 90.500 C 763 90.225, 762.775 90, 762.500 90 C 762.225 90, 762 90.225, 762 90.500 M 733 92.500 C 733 92.775, 733.225 93, 733.500 93 C 733.775 93, 734 92.775, 734 92.500 C 734 92.225, 733.775 92, 733.500 92 C 733.225 92, 733 92.225, 733 92.500 M 765 94.500 C 765 94.775, 765.225 95, 765.500 95 C 765.775 95, 766 94.775, 766 94.500 C 766 94.225, 765.775 94, 765.500 94 C 765.225 94, 765 94.225, 765 94.500 M 736 96.500 C 736 96.775, 736.225 97, 736.500 97 C 736.775 97, 737 96.775, 737 96.500 C 737 96.225, 736.775 96, 736.500 96 C 736.225 96, 736 96.225, 736 96.500 M 767 97.500 C 767 97.775, 767.225 98, 767.500 98 C 767.775 98, 768 97.775, 768 97.500 C 768 97.225, 767.775 97, 767.500 97 C 767.225 97, 767 97.225, 767 97.500 M 738 99.500 C 738 99.775, 738.225 100, 738.500 100 C 738.775 100, 739 99.775, 739 99.500 C 739 99.225, 738.775 99, 738.500 99 C 738.225 99, 738 99.225, 738 99.500 M 769 100.500 C 769 100.775, 769.225 101, 769.500 101 C 769.775 101, 770 100.775, 770 100.500 C 770 100.225, 769.775 100, 769.500 100 C 769.225 100, 769 100.225, 769 100.500 M 770 102.500 C 770 102.775, 770.225 103, 770.500 103 C 770.775 103, 771 102.775, 771 102.500 C 771 102.225, 770.775 102, 770.500 102 C 770.225 102, 770 102.225, 770 102.500 M 772 105.500 C 772 105.775, 772.225 106, 772.500 106 C 772.775 106, 773 105.775, 773 105.500 C 773 105.225, 772.775 105, 772.500 105 C 772.225 105, 772 105.225, 772 105.500 M 773 107.500 C 773 107.775, 773.225 108, 773.500 108 C 773.775 108, 774 107.775, 774 107.500 C 774 107.225, 773.775 107, 773.500 107 C 773.225 107, 773 107.225, 773 107.500 M 744 109.500 C 744 109.775, 744.225 110, 744.500 110 C 744.775 110, 745 109.775, 745 109.500 C 745 109.225, 744.775 109, 744.500 109 C 744.225 109, 744 109.225, 744 109.500 M 774 109.500 C 774 109.775, 774.225 110, 774.500 110 C 774.775 110, 775 109.775, 775 109.500 C 775 109.225, 774.775 109, 774.500 109 C 774.225 109, 774 109.225, 774 109.500 M 775 111.500 C 775 111.775, 775.225 112, 775.500 112 C 775.775 112, 776 111.775, 776 111.500 C 776 111.225, 775.775 111, 775.500 111 C 775.225 111, 775 111.225, 775 111.500 M 778 117.500 C 778 117.775, 778.225 118, 778.500 118 C 778.775 118, 779 117.775, 779 117.500 C 779 117.225, 778.775 117, 778.500 117 C 778.225 117, 778 117.225, 778 117.500 M 779 119.500 C 779 119.775, 779.225 120, 779.500 120 C 779.775 120, 780 119.775, 780 119.500 C 780 119.225, 779.775 119, 779.500 119 C 779.225 119, 779 119.225, 779 119.500 M 750 121.500 C 750 121.775, 750.225 122, 750.500 122 C 750.775 122, 751 121.775, 751 121.500 C 751 121.225, 750.775 121, 750.500 121 C 750.225 121, 750 121.225, 750 121.500 M 780 121.500 C 780 121.775, 780.225 122, 780.500 122 C 780.775 122, 781 121.775, 781 121.500 C 781 121.225, 780.775 121, 780.500 121 C 780.225 121, 780 121.225, 780 121.500 M 751 123.500 C 751 123.775, 751.225 124, 751.500 124 C 751.775 124, 752 123.775, 752 123.500 C 752 123.225, 751.775 123, 751.500 123 C 751.225 123, 751 123.225, 751 123.500 M 781 123.500 C 781 123.775, 781.225 124, 781.500 124 C 781.775 124, 782 123.775, 782 123.500 C 782 123.225, 781.775 123, 781.500 123 C 781.225 123, 781 123.225, 781 123.500 M 782 126.500 C 782 126.775, 782.225 127, 782.500 127 C 782.775 127, 783 126.775, 783 126.500 C 783 126.225, 782.775 126, 782.500 126 C 782.225 126, 782 126.225, 782 126.500 M 753 128.500 C 753 128.775, 753.225 129, 753.500 129 C 753.775 129, 754 128.775, 754 128.500 C 754 128.225, 753.775 128, 753.500 128 C 753.225 128, 753 128.225, 753 128.500 M 783 128.500 C 783 128.775, 783.225 129, 783.500 129 C 783.775 129, 784 128.775, 784 128.500 C 784 128.225, 783.775 128, 783.500 128 C 783.225 128, 783 128.225, 783 128.500 M 784 131.500 C 784 131.775, 784.225 132, 784.500 132 C 784.775 132, 785 131.775, 785 131.500 C 785 131.225, 784.775 131, 784.500 131 C 784.225 131, 784 131.225, 784 131.500 M 785 134 C 785 134.733, 785.300 135.033, 785.667 134.667 C 786.033 134.300, 786.033 133.700, 785.667 133.333 C 785.300 132.967, 785 133.267, 785 134 M 756 136.500 C 756 136.775, 756.225 137, 756.500 137 C 756.775 137, 757 136.775, 757 136.500 C 757 136.225, 756.775 136, 756.500 136 C 756.225 136, 756 136.225, 756 136.500 M 786 136.500 C 786 136.775, 786.225 137, 786.500 137 C 786.775 137, 787 136.775, 787 136.500 C 787 136.225, 786.775 136, 786.500 136 C 786.225 136, 786 136.225, 786 136.500 M 787 140 C 787 140.733, 787.300 141.033, 787.667 140.667 C 788.033 140.300, 788.033 139.700, 787.667 139.333 C 787.300 138.967, 787 139.267, 787 140 M 788 143.500 C 788 143.775, 788.225 144, 788.500 144 C 788.775 144, 789 143.775, 789 143.500 C 789 143.225, 788.775 143, 788.500 143 C 788.225 143, 788 143.225, 788 143.500 M 789 147 C 789 147.733, 789.300 148.033, 789.667 147.667 C 790.033 147.300, 790.033 146.700, 789.667 146.333 C 789.300 145.967, 789 146.267, 789 147 M 790 150.500 C 790 150.775, 790.225 151, 790.500 151 C 790.775 151, 791 150.775, 791 150.500 C 791 150.225, 790.775 150, 790.500 150 C 790.225 150, 790 150.225, 790 150.500 M 791 155 C 791 155.733, 791.300 156.033, 791.667 155.667 C 792.033 155.300, 792.033 154.700, 791.667 154.333 C 791.300 153.967, 791 154.267, 791 155 M 792 160 C 792 160.733, 792.300 161.033, 792.667 160.667 C 793.033 160.300, 793.033 159.700, 792.667 159.333 C 792.300 158.967, 792 159.267, 792 160 M 793 165 C 793 165.733, 793.300 166.033, 793.667 165.667 C 794.033 165.300, 794.033 164.700, 793.667 164.333 C 793.300 163.967, 793 164.267, 793 165 M 548 168.540 C 541.215 170.437, 536.040 173.771, 532.331 178.633 C 529.923 181.790, 529.500 183.275, 529.500 188.579 C 529.500 194.020, 529.888 195.304, 532.545 198.657 C 539.061 206.881, 553.657 211.434, 565.666 208.989 C 583.947 205.267, 592.911 190.885, 584.458 178.836 C 577.904 169.494, 561.332 164.814, 548 168.540 M 794.079 172.583 C 794.127 173.748, 794.364 173.985, 794.683 173.188 C 794.972 172.466, 794.936 171.603, 794.604 171.271 C 794.272 170.939, 794.036 171.529, 794.079 172.583 M 686.667 173.222 C 684.559 173.781, 681.071 175.915, 678.917 177.964 C 672.121 184.429, 671.744 183.204, 699.383 244.500 C 712.775 274.200, 724.130 298.445, 724.616 298.379 C 726.942 298.060, 743.448 261.178, 744.690 253.523 C 745.103 250.979, 742.169 243.206, 730.091 214.845 C 714.643 178.570, 712.866 175.399, 706.685 173.064 C 703.227 171.757, 691.857 171.847, 686.667 173.222 M 873.429 173.834 C 871.190 174.883, 867.990 177.402, 866.318 179.431 C 864.582 181.537, 847.036 218.494, 825.431 265.552 C 804.615 310.890, 787.274 347.651, 786.894 347.242 C 786.514 346.834, 783.637 340.425, 780.500 333 C 777.363 325.575, 774.449 319.129, 774.025 318.677 C 773.600 318.224, 771.357 321.374, 769.039 325.677 C 766.722 329.979, 761.460 338.623, 757.347 344.883 L 749.869 356.267 752.064 361.383 C 759.419 378.523, 764.877 388.708, 768.324 391.723 C 778.470 400.599, 800.125 399.771, 808.180 390.199 C 809.517 388.609, 826.974 351.802, 846.973 308.405 C 866.972 265.007, 883.597 229.190, 883.917 228.812 C 884.238 228.433, 900.925 263.967, 921 307.776 C 950.650 372.479, 958.193 388.128, 961.195 391.159 C 967.567 397.593, 980.529 399.814, 991.936 396.426 C 1002.746 393.216, 1000.355 397.609, 1050.127 289.500 C 1078.138 228.656, 1095.408 189.983, 1095.677 187.500 C 1096.629 178.697, 1089.022 172.958, 1075.409 172.210 C 1066.259 171.708, 1059.410 173.880, 1056.663 178.156 C 1055.835 179.445, 1038.869 217.850, 1018.961 263.500 C 999.053 309.150, 982.438 346.857, 982.038 347.294 C 981.639 347.730, 964.507 311.347, 943.967 266.442 C 923.427 221.536, 905.385 182.846, 903.874 180.462 C 899.670 173.833, 897.141 172.631, 886.605 172.253 C 879.254 171.989, 876.716 172.293, 873.429 173.834 M 1119.637 173.465 C 1111.925 176.214, 1108 182.518, 1108 192.154 C 1108 199.142, 1111.517 205.009, 1117.500 208 C 1121.883 210.192, 1123.798 210.500, 1133.027 210.500 C 1142.307 210.500, 1144.132 210.202, 1148.435 207.988 C 1154.939 204.641, 1157.420 199.946, 1157.389 191.042 C 1157.354 180.877, 1153.585 175.635, 1144.500 173.119 C 1138.987 171.592, 1124.318 171.796, 1119.637 173.465 M 795.079 182.583 C 795.127 183.748, 795.364 183.985, 795.683 183.188 C 795.972 182.466, 795.936 181.603, 795.604 181.271 C 795.272 180.939, 795.036 181.529, 795.079 182.583 M 795.158 212 C 795.158 213.375, 795.385 213.938, 795.662 213.250 C 795.940 212.563, 795.940 211.438, 795.662 210.750 C 795.385 210.063, 795.158 210.625, 795.158 212 M 794.079 222.583 C 794.127 223.748, 794.364 223.985, 794.683 223.188 C 794.972 222.466, 794.936 221.603, 794.604 221.271 C 794.272 220.939, 794.036 221.529, 794.079 222.583 M 1232.265 223.032 C 1215.281 224.817, 1200.446 230.116, 1191.186 237.704 C 1185.531 242.338, 1180.553 250.037, 1178.454 257.397 C 1177.146 261.983, 1176.867 266.096, 1177.198 275.897 C 1177.579 287.160, 1177.922 289.121, 1180.430 294.347 C 1185.996 305.941, 1198.891 315.416, 1214.500 319.377 C 1228.431 322.913, 1234.066 323.261, 1288.500 323.951 C 1348.929 324.717, 1350.469 324.874, 1357.291 330.968 C 1360.384 333.731, 1360.512 334.158, 1360.845 342.784 C 1361.369 356.408, 1359.349 359.078, 1345.800 362.670 C 1340.269 364.137, 1329.948 364.412, 1261.277 364.920 C 1169.329 365.602, 1178.723 363.966, 1178.158 379.398 C 1177.738 390.876, 1179.119 394.360, 1184.756 396.038 C 1187.417 396.829, 1210.056 397.035, 1263 396.747 C 1344.993 396.302, 1348.984 396.040, 1367.342 389.923 C 1383.057 384.686, 1391.934 377.940, 1397.213 367.222 C 1400.365 360.825, 1400.514 359.986, 1400.844 346.855 C 1401.110 336.264, 1400.813 331.867, 1399.532 327.461 C 1395.057 312.070, 1382.775 301.883, 1362.293 296.576 C 1349.443 293.246, 1341.532 292.762, 1288.500 292.062 C 1228.376 291.268, 1226.905 291.105, 1220.303 284.503 C 1217.119 281.319, 1217 280.914, 1217 273.235 C 1217 263.927, 1218.362 261.460, 1225.301 258.198 C 1232.115 254.996, 1243.074 254, 1271.517 254 C 1297.888 254, 1297.888 254, 1300.694 251.587 C 1303.325 249.325, 1303.522 248.606, 1303.851 240.039 C 1304.074 234.255, 1303.747 229.803, 1302.960 227.905 C 1300.622 222.258, 1298.966 221.986, 1267.800 222.136 C 1252.235 222.210, 1236.244 222.614, 1232.265 223.032 M 1486.883 223.003 C 1469.497 224.640, 1454.018 228.873, 1444.011 234.730 C 1437.993 238.252, 1429.612 246.279, 1426.632 251.374 C 1421.210 260.644, 1421 262.817, 1421 309.713 C 1421 350.681, 1421.112 353.395, 1423.037 359.110 C 1425.772 367.229, 1428.666 371.580, 1435.463 377.792 C 1441.851 383.630, 1452.248 389.014, 1462 391.534 C 1476.643 395.317, 1484.601 396.080, 1515.500 396.664 C 1551.383 397.342, 1553.053 397.074, 1554.925 390.330 C 1557.446 381.251, 1555.536 368.410, 1551.335 366.193 C 1550.326 365.660, 1536.450 364.992, 1520.500 364.708 C 1489.318 364.153, 1482.407 363.267, 1473.305 358.655 C 1470.593 357.280, 1466.714 354.319, 1464.687 352.075 C 1461 347.994, 1461 347.994, 1461 338.025 L 1461 328.057 1558.750 327.778 C 1664.918 327.476, 1661.573 327.661, 1664.530 321.941 C 1666.555 318.026, 1666.644 269.001, 1664.641 261.500 C 1660.458 245.842, 1648.491 234.226, 1630.803 228.653 C 1613.198 223.106, 1608.115 222.718, 1549.500 222.444 C 1519.800 222.306, 1491.622 222.557, 1486.883 223.003 M 1123.500 223.865 C 1121.850 224.298, 1119.449 225.217, 1118.165 225.907 C 1112.953 228.707, 1113 227.925, 1113 311.320 C 1113 388.704, 1113 388.704, 1115.263 392.062 C 1118.325 396.605, 1123.986 398.235, 1135 397.744 C 1145.152 397.291, 1149.530 395.369, 1151.579 390.466 C 1152.765 387.626, 1153 374.409, 1153 310.500 C 1153 226.108, 1153.187 228.699, 1146.862 225.428 C 1143.190 223.530, 1128.520 222.548, 1123.500 223.865 M 793 230 C 793 230.733, 793.300 231.033, 793.667 230.667 C 794.033 230.300, 794.033 229.700, 793.667 229.333 C 793.300 228.967, 793 229.267, 793 230 M 792 236 C 792 236.733, 792.300 237.033, 792.667 236.667 C 793.033 236.300, 793.033 235.700, 792.667 235.333 C 792.300 234.967, 792 235.267, 792 236 M 791 241 C 791 241.733, 791.300 242.033, 791.667 241.667 C 792.033 241.300, 792.033 240.700, 791.667 240.333 C 791.300 239.967, 791 240.267, 791 241 M 790 246 C 790 246.733, 790.300 247.033, 790.667 246.667 C 791.033 246.300, 791.033 245.700, 790.667 245.333 C 790.300 244.967, 790 245.267, 790 246 M 789 250.500 C 789 250.775, 789.225 251, 789.500 251 C 789.775 251, 790 250.775, 790 250.500 C 790 250.225, 789.775 250, 789.500 250 C 789.225 250, 789 250.225, 789 250.500 M 788 254.500 C 788 254.775, 788.225 255, 788.500 255 C 788.775 255, 789 254.775, 789 254.500 C 789 254.225, 788.775 254, 788.500 254 C 788.225 254, 788 254.225, 788 254.500 M 1492.810 255.043 C 1478.547 256.706, 1467.104 261.859, 1463.028 268.454 C 1461.282 271.279, 1461 273.425, 1461 283.868 L 1461 296 1543.577 296 L 1626.155 296 1625.827 282.750 C 1625.459 267.856, 1624.877 266.373, 1617.500 261.541 C 1612.352 258.170, 1605.722 256.292, 1594.500 255.029 C 1584.146 253.864, 1502.826 253.875, 1492.810 255.043 M 787 258 C 787 258.733, 787.300 259.033, 787.667 258.667 C 788.033 258.300, 788.033 257.700, 787.667 257.333 C 787.300 256.967, 787 257.267, 787 258 M 786 261.500 C 786 261.775, 786.225 262, 786.500 262 C 786.775 262, 787 261.775, 787 261.500 C 787 261.225, 786.775 261, 786.500 261 C 786.225 261, 786 261.225, 786 261.500 M 785 265 C 785 265.733, 785.300 266.033, 785.667 265.667 C 786.033 265.300, 786.033 264.700, 785.667 264.333 C 785.300 263.967, 785 264.267, 785 265 M 784 268.500 C 784 268.775, 784.225 269, 784.500 269 C 784.775 269, 785 268.775, 785 268.500 C 785 268.225, 784.775 268, 784.500 268 C 784.225 268, 784 268.225, 784 268.500 M 783 271.500 C 783 271.775, 783.225 272, 783.500 272 C 783.775 272, 784 271.775, 784 271.500 C 784 271.225, 783.775 271, 783.500 271 C 783.225 271, 783 271.225, 783 271.500 M 782 274.500 C 782 274.775, 782.225 275, 782.500 275 C 782.775 275, 783 274.775, 783 274.500 C 783 274.225, 782.775 274, 782.500 274 C 782.225 274, 782 274.225, 782 274.500 M 781 277 C 781 277.733, 781.300 278.033, 781.667 277.667 C 782.033 277.300, 782.033 276.700, 781.667 276.333 C 781.300 275.967, 781 276.267, 781 277 M 780 279.500 C 780 279.775, 780.225 280, 780.500 280 C 780.775 280, 781 279.775, 781 279.500 C 781 279.225, 780.775 279, 780.500 279 C 780.225 279, 780 279.225, 780 279.500 M 779 282.500 C 779 282.775, 779.225 283, 779.500 283 C 779.775 283, 780 282.775, 780 282.500 C 780 282.225, 779.775 282, 779.500 282 C 779.225 282, 779 282.225, 779 282.500 M 778 284.500 C 778 284.775, 778.225 285, 778.500 285 C 778.775 285, 779 284.775, 779 284.500 C 779 284.225, 778.775 284, 778.500 284 C 778.225 284, 778 284.225, 778 284.500 M 777 287.500 C 777 287.775, 777.225 288, 777.500 288 C 777.775 288, 778 287.775, 778 287.500 C 778 287.225, 777.775 287, 777.500 287 C 777.225 287, 777 287.225, 777 287.500 M 776 289.500 C 776 289.775, 776.225 290, 776.500 290 C 776.775 290, 777 289.775, 777 289.500 C 777 289.225, 776.775 289, 776.500 289 C 776.225 289, 776 289.225, 776 289.500 M 775 292.500 C 775 292.775, 775.225 293, 775.500 293 C 775.775 293, 776 292.775, 776 292.500 C 776 292.225, 775.775 292, 775.500 292 C 775.225 292, 775 292.225, 775 292.500 M 774 294.500 C 774 294.775, 774.225 295, 774.500 295 C 774.775 295, 775 294.775, 775 294.500 C 775 294.225, 774.775 294, 774.500 294 C 774.225 294, 774 294.225, 774 294.500 M 773 296.500 C 773 296.775, 773.225 297, 773.500 297 C 773.775 297, 774 296.775, 774 296.500 C 774 296.225, 773.775 296, 773.500 296 C 773.225 296, 773 296.225, 773 296.500 M 771 301.500 C 771 301.775, 771.225 302, 771.500 302 C 771.775 302, 772 301.775, 772 301.500 C 772 301.225, 771.775 301, 771.500 301 C 771.225 301, 771 301.225, 771 301.500 M 770 303.500 C 770 303.775, 770.225 304, 770.500 304 C 770.775 304, 771 303.775, 771 303.500 C 771 303.225, 770.775 303, 770.500 303 C 770.225 303, 770 303.225, 770 303.500 M 769 305.500 C 769 305.775, 769.225 306, 769.500 306 C 769.775 306, 770 305.775, 770 305.500 C 770 305.225, 769.775 305, 769.500 305 C 769.225 305, 769 305.225, 769 305.500 M 768 307.500 C 768 307.775, 768.225 308, 768.500 308 C 768.775 308, 769 307.775, 769 307.500 C 769 307.225, 768.775 307, 768.500 307 C 768.225 307, 768 307.225, 768 307.500 M 767 309.500 C 767 309.775, 767.225 310, 767.500 310 C 767.775 310, 768 309.775, 768 309.500 C 768 309.225, 767.775 309, 767.500 309 C 767.225 309, 767 309.225, 767 309.500 M 766 311.500 C 766 311.775, 766.225 312, 766.500 312 C 766.775 312, 767 311.775, 767 311.500 C 767 311.225, 766.775 311, 766.500 311 C 766.225 311, 766 311.225, 766 311.500 M 440.200 314.200 C 438.542 315.858, 438.696 319.503, 440.487 320.989 C 442.493 322.654, 446.640 321.484, 447.270 319.076 C 448.362 314.898, 443.118 311.282, 440.200 314.200 M 765 313.500 C 765 313.775, 765.225 314, 765.500 314 C 765.775 314, 766 313.775, 766 313.500 C 766 313.225, 765.775 313, 765.500 313 C 765.225 313, 765 313.225, 765 313.500 M 383.200 316.200 C 380.282 319.118, 383.898 324.362, 388.076 323.270 C 390.484 322.640, 391.654 318.493, 389.989 316.487 C 388.503 314.696, 384.858 314.542, 383.200 316.200 M 409.389 317.430 C 408.393 320.025, 409.788 322.169, 412.246 321.820 C 413.898 321.585, 414.500 320.833, 414.500 319 C 414.500 317.167, 413.898 316.415, 412.246 316.180 C 410.893 315.988, 409.750 316.488, 409.389 317.430 M 761 320.500 C 761 320.775, 761.225 321, 761.500 321 C 761.775 321, 762 320.775, 762 320.500 C 762 320.225, 761.775 320, 761.500 320 C 761.225 320, 761 320.225, 761 320.500 M 760 322.500 C 760 322.775, 760.225 323, 760.500 323 C 760.775 323, 761 322.775, 761 322.500 C 761 322.225, 760.775 322, 760.500 322 C 760.225 322, 760 322.225, 760 322.500 M 757 327.500 C 757 327.775, 757.225 328, 757.500 328 C 757.775 328, 758 327.775, 758 327.500 C 758 327.225, 757.775 327, 757.500 327 C 757.225 327, 757 327.225, 757 327.500 M 756 329.500 C 756 329.775, 756.225 330, 756.500 330 C 756.775 330, 757 329.775, 757 329.500 C 757 329.225, 756.775 329, 756.500 329 C 756.225 329, 756 329.225, 756 329.500 M 330.695 332.111 C 326.079 334.796, 326.642 342.604, 331.615 344.870 C 335.086 346.452, 336.351 346.298, 339.365 343.927 C 344.537 339.860, 341.697 330.959, 335.250 331.030 C 333.738 331.047, 331.688 331.533, 330.695 332.111 M 427.500 333.195 C 424.771 334.743, 424.033 336.024, 424.015 339.250 C 423.983 345.071, 430.546 347.935, 434.811 343.961 C 437.880 341.102, 437.680 336.680, 434.365 334.073 C 431.378 331.723, 430.332 331.589, 427.500 333.195 M 754 332.500 C 754 332.775, 754.225 333, 754.500 333 C 754.775 333, 755 332.775, 755 332.500 C 755 332.225, 754.775 332, 754.500 332 C 754.225 332, 754 332.225, 754 332.500 M 359 335.927 C 359 337.358, 359.642 338, 361.073 338 C 362.504 338, 363.043 337.461, 362.812 336.261 C 362.310 333.655, 359 333.364, 359 335.927 M 460.408 336.500 C 458.891 338.816, 458.891 339.184, 460.408 341.500 C 462.291 344.374, 466.048 344.809, 468.429 342.429 C 470.516 340.341, 470.416 337.686, 468.171 335.655 C 465.530 333.265, 462.297 333.617, 460.408 336.500 M 751 337.500 C 751 337.775, 751.225 338, 751.500 338 C 751.775 338, 752 337.775, 752 337.500 C 752 337.225, 751.775 337, 751.500 337 C 751.225 337, 751 337.225, 751 337.500 M 390.667 338.667 C 390.300 339.033, 390 340.383, 390 341.667 C 390 343.461, 390.553 344, 392.393 344 C 393.709 344, 395.067 343.268, 395.410 342.373 C 396.471 339.610, 392.683 336.650, 390.667 338.667 M 749 340.500 C 749 340.775, 749.225 341, 749.500 341 C 749.775 341, 750 340.775, 750 340.500 C 750 340.225, 749.775 340, 749.500 340 C 749.225 340, 749 340.225, 749 340.500 M 706 343.500 C 706 343.775, 706.225 344, 706.500 344 C 706.775 344, 707 343.775, 707 343.500 C 707 343.225, 706.775 343, 706.500 343 C 706.225 343, 706 343.225, 706 343.500 M 747 343.500 C 747 343.775, 747.225 344, 747.500 344 C 747.775 344, 748 343.775, 748 343.500 C 748 343.225, 747.775 343, 747.500 343 C 747.225 343, 747 343.225, 747 343.500 M 745 346.500 C 745 346.775, 745.225 347, 745.500 347 C 745.775 347, 746 346.775, 746 346.500 C 746 346.225, 745.775 346, 745.500 346 C 745.225 346, 745 346.225, 745 346.500 M 702 348.500 C 702 348.775, 702.225 349, 702.500 349 C 702.775 349, 703 348.775, 703 348.500 C 703 348.225, 702.775 348, 702.500 348 C 702.225 348, 702 348.225, 702 348.500 M 742.405 350.155 C 741.962 350.870, 742.130 351.038, 742.845 350.595 C 743.480 350.203, 744 349.684, 744 349.441 C 744 348.607, 743.117 349.002, 742.405 350.155 M 740 353.500 C 740 353.775, 740.225 354, 740.500 354 C 740.775 354, 741 353.775, 741 353.500 C 741 353.225, 740.775 353, 740.500 353 C 740.225 353, 740 353.225, 740 353.500 M 370.200 356.200 C 369.540 356.860, 369 358.435, 369 359.700 C 369 361.793, 369.449 362, 374 362 C 378.551 362, 379 361.793, 379 359.700 C 379 356.681, 377.212 355, 374 355 C 372.570 355, 370.860 355.540, 370.200 356.200 M 696 355.500 C 696 355.775, 696.225 356, 696.500 356 C 696.775 356, 697 355.775, 697 355.500 C 697 355.225, 696.775 355, 696.500 355 C 696.225 355, 696 355.225, 696 355.500 M 407.200 357.200 C 406.540 357.860, 406 359.210, 406 360.200 C 406 361.667, 406.833 362, 410.500 362 C 415.362 362, 416.355 360.498, 413.429 357.571 C 411.557 355.700, 408.861 355.539, 407.200 357.200 M 737 357.500 C 737 357.775, 737.225 358, 737.500 358 C 737.775 358, 738 357.775, 738 357.500 C 738 357.225, 737.775 357, 737.500 357 C 737.225 357, 737 357.225, 737 357.500 M 734 361.500 C 734 361.775, 734.225 362, 734.500 362 C 734.775 362, 735 361.775, 735 361.500 C 735 361.225, 734.775 361, 734.500 361 C 734.225 361, 734 361.225, 734 361.500 M 685.405 367.250 C 683.500 369.500, 683.500 369.500, 685.750 367.595 C 687.864 365.805, 688.455 365, 687.655 365 C 687.465 365, 686.453 366.012, 685.405 367.250 M 730.405 366.155 C 729.962 366.870, 730.130 367.038, 730.845 366.595 C 731.480 366.203, 732 365.684, 732 365.441 C 732 364.607, 731.117 365.002, 730.405 366.155 M 726.405 371.155 C 725.962 371.870, 726.130 372.038, 726.845 371.595 C 727.480 371.203, 728 370.684, 728 370.441 C 728 369.607, 727.117 370.002, 726.405 371.155 M 720.872 377.750 C 719.629 379.336, 719.664 379.371, 721.250 378.128 C 722.916 376.821, 723.445 376, 722.622 376 C 722.415 376, 721.627 376.788, 720.872 377.750 M 671.872 380.750 C 670.629 382.336, 670.664 382.371, 672.250 381.128 C 673.916 379.821, 674.445 379, 673.622 379 C 673.415 379, 672.627 379.788, 671.872 380.750 M 712.924 386.750 L 710.500 389.500 713.250 387.076 C 714.763 385.742, 716 384.505, 716 384.326 C 716 383.541, 715.190 384.180, 712.924 386.750 M 212 387.500 C 212 387.775, 212.225 388, 212.500 388 C 212.775 388, 213 387.775, 213 387.500 C 213 387.225, 212.775 387, 212.500 387 C 212.225 387, 212 387.225, 212 387.500 M 660.872 390.750 C 659.629 392.336, 659.664 392.371, 661.250 391.128 C 662.916 389.821, 663.445 389, 662.622 389 C 662.415 389, 661.627 389.788, 660.872 390.750 M 654 396.500 C 654 396.775, 654.225 397, 654.500 397 C 654.775 397, 655 396.775, 655 396.500 C 655 396.225, 654.775 396, 654.500 396 C 654.225 396, 654 396.225, 654 396.500 M 648 401.500 C 648 401.775, 648.225 402, 648.500 402 C 648.775 402, 649 401.775, 649 401.500 C 649 401.225, 648.775 401, 648.500 401 C 648.225 401, 648 401.225, 648 401.500 M 643.405 405.155 C 642.962 405.870, 643.130 406.038, 643.845 405.595 C 644.480 405.203, 645 404.684, 645 404.441 C 645 403.607, 644.117 404.002, 643.405 405.155 M 689.437 410.250 L 686.500 413.500 689.750 410.563 C 691.538 408.948, 693 407.485, 693 407.313 C 693 406.540, 692.175 407.221, 689.437 410.250 M 639 408.500 C 639 408.775, 639.225 409, 639.500 409 C 639.775 409, 640 408.775, 640 408.500 C 640 408.225, 639.775 408, 639.500 408 C 639.225 408, 639 408.225, 639 408.500 M 635 411.500 C 635 411.775, 635.225 412, 635.500 412 C 635.775 412, 636 411.775, 636 411.500 C 636 411.225, 635.775 411, 635.500 411 C 635.225 411, 635 411.225, 635 411.500 M 631.405 414.155 C 630.962 414.870, 631.130 415.038, 631.845 414.595 C 632.480 414.203, 633 413.684, 633 413.441 C 633 412.607, 632.117 413.002, 631.405 414.155 M 628 416.500 C 628 416.775, 628.225 417, 628.500 417 C 628.775 417, 629 416.775, 629 416.500 C 629 416.225, 628.775 416, 628.500 416 C 628.225 416, 628 416.225, 628 416.500 M 679.872 418.750 C 678.629 420.336, 678.664 420.371, 680.250 419.128 C 681.916 417.821, 682.445 417, 681.622 417 C 681.415 417, 680.627 417.788, 679.872 418.750 M 624.405 419.155 C 623.962 419.870, 624.130 420.038, 624.845 419.595 C 625.480 419.203, 626 418.684, 626 418.441 C 626 417.607, 625.117 418.002, 624.405 419.155 M 621 421.500 C 621 421.775, 621.225 422, 621.500 422 C 621.775 422, 622 421.775, 622 421.500 C 622 421.225, 621.775 421, 621.500 421 C 621.225 421, 621 421.225, 621 421.500 M 618 423.500 C 618 423.775, 618.225 424, 618.500 424 C 618.775 424, 619 423.775, 619 423.500 C 619 423.225, 618.775 423, 618.500 423 C 618.225 423, 618 423.225, 618 423.500 M 673.405 424.155 C 672.962 424.870, 673.130 425.038, 673.845 424.595 C 674.480 424.203, 675 423.684, 675 423.441 C 675 422.607, 674.117 423.002, 673.405 424.155 M 615 425.500 C 615 425.775, 615.225 426, 615.500 426 C 615.775 426, 616 425.775, 616 425.500 C 616 425.225, 615.775 425, 615.500 425 C 615.225 425, 615 425.225, 615 425.500 M 668.405 428.155 C 667.962 428.870, 668.130 429.038, 668.845 428.595 C 669.480 428.203, 670 427.684, 670 427.441 C 670 426.607, 669.117 427.002, 668.405 428.155 M 610 428.500 C 610 428.775, 610.225 429, 610.500 429 C 610.775 429, 611 428.775, 611 428.500 C 611 428.225, 610.775 428, 610.500 428 C 610.225 428, 610 428.225, 610 428.500 M 607 430.500 C 607 430.775, 607.225 431, 607.500 431 C 607.775 431, 608 430.775, 608 430.500 C 608 430.225, 607.775 430, 607.500 430 C 607.225 430, 607 430.225, 607 430.500 M 663.405 432.155 C 662.962 432.870, 663.130 433.038, 663.845 432.595 C 664.480 432.203, 665 431.684, 665 431.441 C 665 430.607, 664.117 431.002, 663.405 432.155 M 604 432.500 C 604 432.775, 604.225 433, 604.500 433 C 604.775 433, 605 432.775, 605 432.500 C 605 432.225, 604.775 432, 604.500 432 C 604.225 432, 604 432.225, 604 432.500 M 602 433.500 C 602 433.775, 602.225 434, 602.500 434 C 602.775 434, 603 433.775, 603 433.500 C 603 433.225, 602.775 433, 602.500 433 C 602.225 433, 602 433.225, 602 433.500 M 659.405 435.155 C 658.962 435.870, 659.130 436.038, 659.845 435.595 C 660.998 434.883, 661.393 434, 660.559 434 C 660.316 434, 659.797 434.520, 659.405 435.155 M 599 435.500 C 599 435.775, 599.225 436, 599.500 436 C 599.775 436, 600 435.775, 600 435.500 C 600 435.225, 599.775 435, 599.500 435 C 599.225 435, 599 435.225, 599 435.500 M 597 436.500 C 597 436.775, 597.225 437, 597.500 437 C 597.775 437, 598 436.775, 598 436.500 C 598 436.225, 597.775 436, 597.500 436 C 597.225 436, 597 436.225, 597 436.500 M 595 437.500 C 595 437.775, 595.225 438, 595.500 438 C 595.775 438, 596 437.775, 596 437.500 C 596 437.225, 595.775 437, 595.500 437 C 595.225 437, 595 437.225, 595 437.500 M 655.405 438.155 C 654.962 438.870, 655.130 439.038, 655.845 438.595 C 656.480 438.203, 657 437.684, 657 437.441 C 657 436.607, 656.117 437.002, 655.405 438.155 M 592 439.500 C 592 439.775, 592.225 440, 592.500 440 C 592.775 440, 593 439.775, 593 439.500 C 593 439.225, 592.775 439, 592.500 439 C 592.225 439, 592 439.225, 592 439.500 M 590 440.500 C 590 440.775, 590.225 441, 590.500 441 C 590.775 441, 591 440.775, 591 440.500 C 591 440.225, 590.775 440, 590.500 440 C 590.225 440, 590 440.225, 590 440.500 M 652 440.500 C 652 440.775, 652.225 441, 652.500 441 C 652.775 441, 653 440.775, 653 440.500 C 653 440.225, 652.775 440, 652.500 440 C 652.225 440, 652 440.225, 652 440.500 M 588 441.500 C 588 441.775, 588.225 442, 588.500 442 C 588.775 442, 589 441.775, 589 441.500 C 589 441.225, 588.775 441, 588.500 441 C 588.225 441, 588 441.225, 588 441.500 M 586 442.500 C 586 442.775, 586.225 443, 586.500 443 C 586.775 443, 587 442.775, 587 442.500 C 587 442.225, 586.775 442, 586.500 442 C 586.225 442, 586 442.225, 586 442.500 M 648 443.500 C 648 443.775, 648.225 444, 648.500 444 C 648.775 444, 649 443.775, 649 443.500 C 649 443.225, 648.775 443, 648.500 443 C 648.225 443, 648 443.225, 648 443.500 M 581 445.500 C 581 445.775, 581.225 446, 581.500 446 C 581.775 446, 582 445.775, 582 445.500 C 582 445.225, 581.775 445, 581.500 445 C 581.225 445, 581 445.225, 581 445.500 M 645 445.500 C 645 445.775, 645.225 446, 645.500 446 C 645.775 446, 646 445.775, 646 445.500 C 646 445.225, 645.775 445, 645.500 445 C 645.225 445, 645 445.225, 645 445.500 M 579 446.500 C 579 446.775, 579.225 447, 579.500 447 C 579.775 447, 580 446.775, 580 446.500 C 580 446.225, 579.775 446, 579.500 446 C 579.225 446, 579 446.225, 579 446.500 M 577 447.500 C 577 447.775, 577.225 448, 577.500 448 C 577.775 448, 578 447.775, 578 447.500 C 578 447.225, 577.775 447, 577.500 447 C 577.225 447, 577 447.225, 577 447.500 M 642 447.500 C 642 447.775, 642.225 448, 642.500 448 C 642.775 448, 643 447.775, 643 447.500 C 643 447.225, 642.775 447, 642.500 447 C 642.225 447, 642 447.225, 642 447.500 M 575 448.500 C 575 448.775, 575.225 449, 575.500 449 C 575.775 449, 576 448.775, 576 448.500 C 576 448.225, 575.775 448, 575.500 448 C 575.225 448, 575 448.225, 575 448.500 M 573 449.500 C 573 449.775, 573.225 450, 573.500 450 C 573.775 450, 574 449.775, 574 449.500 C 574 449.225, 573.775 449, 573.500 449 C 573.225 449, 573 449.225, 573 449.500 M 639 449.500 C 639 449.775, 639.225 450, 639.500 450 C 639.775 450, 640 449.775, 640 449.500 C 640 449.225, 639.775 449, 639.500 449 C 639.225 449, 639 449.225, 639 449.500 M 571 450.500 C 571 450.775, 571.225 451, 571.500 451 C 571.775 451, 572 450.775, 572 450.500 C 572 450.225, 571.775 450, 571.500 450 C 571.225 450, 571 450.225, 571 450.500 M 264 451.500 C 264 451.775, 264.225 452, 264.500 452 C 264.775 452, 265 451.775, 265 451.500 C 265 451.225, 264.775 451, 264.500 451 C 264.225 451, 264 451.225, 264 451.500 M 569 451.500 C 569 451.775, 569.225 452, 569.500 452 C 569.775 452, 570 451.775, 570 451.500 C 570 451.225, 569.775 451, 569.500 451 C 569.225 451, 569 451.225, 569 451.500 M 636 451.500 C 636 451.775, 636.225 452, 636.500 452 C 636.775 452, 637 451.775, 637 451.500 C 637 451.225, 636.775 451, 636.500 451 C 636.225 451, 636 451.225, 636 451.500 M 266 452.500 C 266 452.775, 266.225 453, 266.500 453 C 266.775 453, 267 452.775, 267 452.500 C 267 452.225, 266.775 452, 266.500 452 C 266.225 452, 266 452.225, 266 452.500 M 567 452.500 C 567 452.775, 567.225 453, 567.500 453 C 567.775 453, 568 452.775, 568 452.500 C 568 452.225, 567.775 452, 567.500 452 C 567.225 452, 567 452.225, 567 452.500 M 269 454.500 C 269 454.775, 269.225 455, 269.500 455 C 269.775 455, 270 454.775, 270 454.500 C 270 454.225, 269.775 454, 269.500 454 C 269.225 454, 269 454.225, 269 454.500 M 562 454.500 C 562 454.775, 562.225 455, 562.500 455 C 562.775 455, 563 454.775, 563 454.500 C 563 454.225, 562.775 454, 562.500 454 C 562.225 454, 562 454.225, 562 454.500 M 631 454.500 C 631 454.775, 631.225 455, 631.500 455 C 631.775 455, 632 454.775, 632 454.500 C 632 454.225, 631.775 454, 631.500 454 C 631.225 454, 631 454.225, 631 454.500 M 560 455.500 C 560 455.775, 560.225 456, 560.500 456 C 560.775 456, 561 455.775, 561 455.500 C 561 455.225, 560.775 455, 560.500 455 C 560.225 455, 560 455.225, 560 455.500 M 272 456.500 C 272 456.775, 272.225 457, 272.500 457 C 272.775 457, 273 456.775, 273 456.500 C 273 456.225, 272.775 456, 272.500 456 C 272.225 456, 272 456.225, 272 456.500 M 558 456.500 C 558 456.775, 558.225 457, 558.500 457 C 558.775 457, 559 456.775, 559 456.500 C 559 456.225, 558.775 456, 558.500 456 C 558.225 456, 558 456.225, 558 456.500 M 628 456.500 C 628 456.775, 628.225 457, 628.500 457 C 628.775 457, 629 456.775, 629 456.500 C 629 456.225, 628.775 456, 628.500 456 C 628.225 456, 628 456.225, 628 456.500 M 274 457.500 C 274 457.775, 274.225 458, 274.500 458 C 274.775 458, 275 457.775, 275 457.500 C 275 457.225, 274.775 457, 274.500 457 C 274.225 457, 274 457.225, 274 457.500 M 556 457.500 C 556 457.775, 556.225 458, 556.500 458 C 556.775 458, 557 457.775, 557 457.500 C 557 457.225, 556.775 457, 556.500 457 C 556.225 457, 556 457.225, 556 457.500 M 553 458.500 C 553 458.775, 553.225 459, 553.500 459 C 553.775 459, 554 458.775, 554 458.500 C 554 458.225, 553.775 458, 553.500 458 C 553.225 458, 553 458.225, 553 458.500 M 277 459.500 C 277 459.775, 277.225 460, 277.500 460 C 277.775 460, 278 459.775, 278 459.500 C 278 459.225, 277.775 459, 277.500 459 C 277.225 459, 277 459.225, 277 459.500 M 551 459.500 C 551 459.775, 551.225 460, 551.500 460 C 551.775 460, 552 459.775, 552 459.500 C 552 459.225, 551.775 459, 551.500 459 C 551.225 459, 551 459.225, 551 459.500 M 623 459.500 C 623 459.775, 623.225 460, 623.500 460 C 623.775 460, 624 459.775, 624 459.500 C 624 459.225, 623.775 459, 623.500 459 C 623.225 459, 623 459.225, 623 459.500 M 279 460.500 C 279 460.775, 279.225 461, 279.500 461 C 279.775 461, 280 460.775, 280 460.500 C 280 460.225, 279.775 460, 279.500 460 C 279.225 460, 279 460.225, 279 460.500 M 549 460.500 C 549 460.775, 549.225 461, 549.500 461 C 549.775 461, 550 460.775, 550 460.500 C 550 460.225, 549.775 460, 549.500 460 C 549.225 460, 549 460.225, 549 460.500 M 281 461.500 C 281 461.775, 281.225 462, 281.500 462 C 281.775 462, 282 461.775, 282 461.500 C 282 461.225, 281.775 461, 281.500 461 C 281.225 461, 281 461.225, 281 461.500 M 546 461.500 C 546 461.775, 546.225 462, 546.500 462 C 546.775 462, 547 461.775, 547 461.500 C 547 461.225, 546.775 461, 546.500 461 C 546.225 461, 546 461.225, 546 461.500 M 544 462.500 C 544 462.775, 544.225 463, 544.500 463 C 544.775 463, 545 462.775, 545 462.500 C 545 462.225, 544.775 462, 544.500 462 C 544.225 462, 544 462.225, 544 462.500 M 541 463.500 C 541 463.775, 541.225 464, 541.500 464 C 541.775 464, 542 463.775, 542 463.500 C 542 463.225, 541.775 463, 541.500 463 C 541.225 463, 541 463.225, 541 463.500 M 616 463.500 C 616 463.775, 616.225 464, 616.500 464 C 616.775 464, 617 463.775, 617 463.500 C 617 463.225, 616.775 463, 616.500 463 C 616.225 463, 616 463.225, 616 463.500 M 539 464.500 C 539 464.775, 539.225 465, 539.500 465 C 539.775 465, 540 464.775, 540 464.500 C 540 464.225, 539.775 464, 539.500 464 C 539.225 464, 539 464.225, 539 464.500 M 536 465.500 C 536 465.775, 536.225 466, 536.500 466 C 536.775 466, 537 465.775, 537 465.500 C 537 465.225, 536.775 465, 536.500 465 C 536.225 465, 536 465.225, 536 465.500 M 533.333 466.667 C 533.700 467.033, 534.300 467.033, 534.667 466.667 C 535.033 466.300, 534.733 466, 534 466 C 533.267 466, 532.967 466.300, 533.333 466.667 M 531 467.500 C 531 467.775, 531.225 468, 531.500 468 C 531.775 468, 532 467.775, 532 467.500 C 532 467.225, 531.775 467, 531.500 467 C 531.225 467, 531 467.225, 531 467.500 M 609 467.500 C 609 467.775, 609.225 468, 609.500 468 C 609.775 468, 610 467.775, 610 467.500 C 610 467.225, 609.775 467, 609.500 467 C 609.225 467, 609 467.225, 609 467.500 M 295 468.500 C 295 468.775, 295.225 469, 295.500 469 C 295.775 469, 296 468.775, 296 468.500 C 296 468.225, 295.775 468, 295.500 468 C 295.225 468, 295 468.225, 295 468.500 M 528 468.500 C 528 468.775, 528.225 469, 528.500 469 C 528.775 469, 529 468.775, 529 468.500 C 529 468.225, 528.775 468, 528.500 468 C 528.225 468, 528 468.225, 528 468.500 M 607 468.500 C 607 468.775, 607.225 469, 607.500 469 C 607.775 469, 608 468.775, 608 468.500 C 608 468.225, 607.775 468, 607.500 468 C 607.225 468, 607 468.225, 607 468.500 M 297 469.500 C 297 469.775, 297.225 470, 297.500 470 C 297.775 470, 298 469.775, 298 469.500 C 298 469.225, 297.775 469, 297.500 469 C 297.225 469, 297 469.225, 297 469.500 M 525 469.500 C 525 469.775, 525.225 470, 525.500 470 C 525.775 470, 526 469.775, 526 469.500 C 526 469.225, 525.775 469, 525.500 469 C 525.225 469, 525 469.225, 525 469.500 M 605 469.500 C 605 469.775, 605.225 470, 605.500 470 C 605.775 470, 606 469.775, 606 469.500 C 606 469.225, 605.775 469, 605.500 469 C 605.225 469, 605 469.225, 605 469.500 M 299 470.500 C 299 470.775, 299.225 471, 299.500 471 C 299.775 471, 300 470.775, 300 470.500 C 300 470.225, 299.775 470, 299.500 470 C 299.225 470, 299 470.225, 299 470.500 M 522 470.500 C 522 470.775, 522.225 471, 522.500 471 C 522.775 471, 523 470.775, 523 470.500 C 523 470.225, 522.775 470, 522.500 470 C 522.225 470, 522 470.225, 522 470.500 M 603 470.500 C 603 470.775, 603.225 471, 603.500 471 C 603.775 471, 604 470.775, 604 470.500 C 604 470.225, 603.775 470, 603.500 470 C 603.225 470, 603 470.225, 603 470.500 M 302 471.500 C 302 471.775, 302.225 472, 302.500 472 C 302.775 472, 303 471.775, 303 471.500 C 303 471.225, 302.775 471, 302.500 471 C 302.225 471, 302 471.225, 302 471.500 M 519 471.500 C 519 471.775, 519.225 472, 519.500 472 C 519.775 472, 520 471.775, 520 471.500 C 520 471.225, 519.775 471, 519.500 471 C 519.225 471, 519 471.225, 519 471.500 M 304 472.500 C 304 472.775, 304.225 473, 304.500 473 C 304.775 473, 305 472.775, 305 472.500 C 305 472.225, 304.775 472, 304.500 472 C 304.225 472, 304 472.225, 304 472.500 M 516 472.500 C 516 472.775, 516.225 473, 516.500 473 C 516.775 473, 517 472.775, 517 472.500 C 517 472.225, 516.775 472, 516.500 472 C 516.225 472, 516 472.225, 516 472.500 M 307 473.500 C 307 473.775, 307.225 474, 307.500 474 C 307.775 474, 308 473.775, 308 473.500 C 308 473.225, 307.775 473, 307.500 473 C 307.225 473, 307 473.225, 307 473.500 M 513 473.500 C 513 473.775, 513.225 474, 513.500 474 C 513.775 474, 514 473.775, 514 473.500 C 514 473.225, 513.775 473, 513.500 473 C 513.225 473, 513 473.225, 513 473.500 M 309 474.500 C 309 474.775, 309.225 475, 309.500 475 C 309.775 475, 310 474.775, 310 474.500 C 310 474.225, 309.775 474, 309.500 474 C 309.225 474, 309 474.225, 309 474.500 M 510 474.500 C 510 474.775, 510.225 475, 510.500 475 C 510.775 475, 511 474.775, 511 474.500 C 511 474.225, 510.775 474, 510.500 474 C 510.225 474, 510 474.225, 510 474.500 M 312 475.500 C 312 475.775, 312.225 476, 312.500 476 C 312.775 476, 313 475.775, 313 475.500 C 313 475.225, 312.775 475, 312.500 475 C 312.225 475, 312 475.225, 312 475.500 M 506.333 475.667 C 506.700 476.033, 507.300 476.033, 507.667 475.667 C 508.033 475.300, 507.733 475, 507 475 C 506.267 475, 505.967 475.300, 506.333 475.667 M 315 476.500 C 315 476.775, 315.225 477, 315.500 477 C 315.775 477, 316 476.775, 316 476.500 C 316 476.225, 315.775 476, 315.500 476 C 315.225 476, 315 476.225, 315 476.500 M 503 476.500 C 503 476.775, 503.225 477, 503.500 477 C 503.775 477, 504 476.775, 504 476.500 C 504 476.225, 503.775 476, 503.500 476 C 503.225 476, 503 476.225, 503 476.500 M 591 476.500 C 591 476.775, 591.225 477, 591.500 477 C 591.775 477, 592 476.775, 592 476.500 C 592 476.225, 591.775 476, 591.500 476 C 591.225 476, 591 476.225, 591 476.500 M 318 477.500 C 318 477.775, 318.225 478, 318.500 478 C 318.775 478, 319 477.775, 319 477.500 C 319 477.225, 318.775 477, 318.500 477 C 318.225 477, 318 477.225, 318 477.500 M 499.333 477.667 C 499.700 478.033, 500.300 478.033, 500.667 477.667 C 501.033 477.300, 500.733 477, 500 477 C 499.267 477, 498.967 477.300, 499.333 477.667 M 589 477.500 C 589 477.775, 589.225 478, 589.500 478 C 589.775 478, 590 477.775, 590 477.500 C 590 477.225, 589.775 477, 589.500 477 C 589.225 477, 589 477.225, 589 477.500 M 321 478.500 C 321 478.775, 321.225 479, 321.500 479 C 321.775 479, 322 478.775, 322 478.500 C 322 478.225, 321.775 478, 321.500 478 C 321.225 478, 321 478.225, 321 478.500 M 495.333 478.667 C 495.700 479.033, 496.300 479.033, 496.667 478.667 C 497.033 478.300, 496.733 478, 496 478 C 495.267 478, 494.967 478.300, 495.333 478.667 M 324 479.500 C 324 479.775, 324.225 480, 324.500 480 C 324.775 480, 325 479.775, 325 479.500 C 325 479.225, 324.775 479, 324.500 479 C 324.225 479, 324 479.225, 324 479.500 M 492 479.500 C 492 479.775, 492.225 480, 492.500 480 C 492.775 480, 493 479.775, 493 479.500 C 493 479.225, 492.775 479, 492.500 479 C 492.225 479, 492 479.225, 492 479.500 M 327.333 480.667 C 327.700 481.033, 328.300 481.033, 328.667 480.667 C 329.033 480.300, 328.733 480, 328 480 C 327.267 480, 326.967 480.300, 327.333 480.667 M 488 480.500 C 488 480.775, 488.225 481, 488.500 481 C 488.775 481, 489 480.775, 489 480.500 C 489 480.225, 488.775 480, 488.500 480 C 488.225 480, 488 480.225, 488 480.500 M 331 481.500 C 331 481.775, 331.225 482, 331.500 482 C 331.775 482, 332 481.775, 332 481.500 C 332 481.225, 331.775 481, 331.500 481 C 331.225 481, 331 481.225, 331 481.500 M 483.333 481.667 C 483.700 482.033, 484.300 482.033, 484.667 481.667 C 485.033 481.300, 484.733 481, 484 481 C 483.267 481, 482.967 481.300, 483.333 481.667 M 335 482.500 C 335 482.775, 335.225 483, 335.500 483 C 335.775 483, 336 482.775, 336 482.500 C 336 482.225, 335.775 482, 335.500 482 C 335.225 482, 335 482.225, 335 482.500 M 479 482.500 C 479 482.775, 479.225 483, 479.500 483 C 479.775 483, 480 482.775, 480 482.500 C 480 482.225, 479.775 482, 479.500 482 C 479.225 482, 479 482.225, 479 482.500 M 578 482.500 C 578 482.775, 578.225 483, 578.500 483 C 578.775 483, 579 482.775, 579 482.500 C 579 482.225, 578.775 482, 578.500 482 C 578.225 482, 578 482.225, 578 482.500 M 339 483.500 C 339 483.775, 339.225 484, 339.500 484 C 339.775 484, 340 483.775, 340 483.500 C 340 483.225, 339.775 483, 339.500 483 C 339.225 483, 339 483.225, 339 483.500 M 474.333 483.667 C 474.700 484.033, 475.300 484.033, 475.667 483.667 C 476.033 483.300, 475.733 483, 475 483 C 474.267 483, 473.967 483.300, 474.333 483.667 M 343.333 484.667 C 343.700 485.033, 344.300 485.033, 344.667 484.667 C 345.033 484.300, 344.733 484, 344 484 C 343.267 484, 342.967 484.300, 343.333 484.667 M 469.333 484.667 C 469.700 485.033, 470.300 485.033, 470.667 484.667 C 471.033 484.300, 470.733 484, 470 484 C 469.267 484, 468.967 484.300, 469.333 484.667 M 348.333 485.667 C 348.700 486.033, 349.300 486.033, 349.667 485.667 C 350.033 485.300, 349.733 485, 349 485 C 348.267 485, 347.967 485.300, 348.333 485.667 M 463.333 485.667 C 463.700 486.033, 464.300 486.033, 464.667 485.667 C 465.033 485.300, 464.733 485, 464 485 C 463.267 485, 462.967 485.300, 463.333 485.667 M 353.333 486.667 C 353.700 487.033, 354.300 487.033, 354.667 486.667 C 355.033 486.300, 354.733 486, 354 486 C 353.267 486, 352.967 486.300, 353.333 486.667 M 457.333 486.667 C 457.700 487.033, 458.300 487.033, 458.667 486.667 C 459.033 486.300, 458.733 486, 458 486 C 457.267 486, 456.967 486.300, 457.333 486.667 M 359.813 487.683 C 360.534 487.972, 361.397 487.936, 361.729 487.604 C 362.061 487.272, 361.471 487.036, 360.417 487.079 C 359.252 487.127, 359.015 487.364, 359.813 487.683 M 450.813 487.683 C 451.534 487.972, 452.397 487.936, 452.729 487.604 C 453.061 487.272, 452.471 487.036, 451.417 487.079 C 450.252 487.127, 450.015 487.364, 450.813 487.683 M 367.333 488.667 C 367.700 489.033, 368.300 489.033, 368.667 488.667 C 369.033 488.300, 368.733 488, 368 488 C 367.267 488, 366.967 488.300, 367.333 488.667 M 442.813 488.683 C 443.534 488.972, 444.397 488.936, 444.729 488.604 C 445.061 488.272, 444.471 488.036, 443.417 488.079 C 442.252 488.127, 442.015 488.364, 442.813 488.683 M 375.750 489.662 C 376.438 489.940, 377.563 489.940, 378.250 489.662 C 378.938 489.385, 378.375 489.158, 377 489.158 C 375.625 489.158, 375.063 489.385, 375.750 489.662 M 432.813 489.683 C 433.534 489.972, 434.397 489.936, 434.729 489.604 C 435.061 489.272, 434.471 489.036, 433.417 489.079 C 432.252 489.127, 432.015 489.364, 432.813 489.683 M 390.762 490.707 C 392.006 490.946, 393.806 490.937, 394.762 490.687 C 395.718 490.437, 394.700 490.241, 392.500 490.252 C 390.300 490.263, 389.518 490.468, 390.762 490.707 M 415.762 490.707 C 417.006 490.946, 418.806 490.937, 419.762 490.687 C 420.718 490.437, 419.700 490.241, 417.500 490.252 C 415.300 490.263, 414.518 490.468, 415.762 490.707" stroke="none" fill="#969636" fill-rule="evenodd"/><path d="M 547 1.084 C 521.032 3.886, 492.603 10.144, 465.569 19.009 L 449.735 24.202 453.801 26.022 C 456.290 27.137, 458.501 29.068, 459.501 31.002 C 460.687 33.296, 461.596 33.982, 462.818 33.506 C 463.743 33.146, 466.863 32.372, 469.750 31.787 C 474.638 30.797, 475 30.523, 475 27.812 C 475 23.409, 477.504 19.463, 481.503 17.566 C 487.835 14.561, 494 17.737, 494 24.005 C 494 26.566, 494 26.566, 500.909 25.611 L 507.818 24.656 507.286 21.374 C 506.846 18.664, 507.283 17.563, 509.800 15.046 C 515.110 9.736, 521.662 12.203, 520.844 19.205 L 520.460 22.500 549.980 22.500 C 573.369 22.500, 581.888 22.871, 591 24.287 C 680.551 38.202, 738.604 87.815, 752.727 162.500 C 755.113 175.120, 755.085 207.788, 752.676 221 C 746.690 253.825, 736.865 279.545, 720.045 306.416 C 701.071 336.728, 681.027 360.416, 655 383.289 C 596.415 434.774, 524.627 467.612, 446.500 478.661 C 427.951 481.285, 381.675 481.272, 364.500 478.639 C 329.712 473.306, 296.667 461.199, 272.127 444.797 C 255.744 433.847, 246.188 424.782, 228.332 403.250 C 220.920 394.312, 214.513 387, 214.095 387 C 211.812 387, 212.673 389.534, 219.159 401.902 C 234.203 430.589, 242.399 442.870, 256.431 457.752 C 272.480 474.773, 290.943 488.051, 314.500 499.511 C 338.732 511.300, 359.498 517.609, 389 522.146 C 401.344 524.044, 407.589 524.377, 431 524.385 C 459.547 524.394, 470.961 523.408, 495 518.855 C 607.602 497.530, 713.161 424.061, 766.617 329.810 C 769.209 325.239, 772.366 319.921, 773.633 317.992 C 780.885 306.948, 794.848 269.880, 799.435 249.500 C 806.716 217.142, 807.060 180.047, 800.347 151 C 795.427 129.708, 783.573 103.260, 771.253 86.088 C 744.089 48.225, 702.077 21.049, 650.565 8.018 C 626.105 1.830, 616.313 0.713, 584 0.423 C 568.325 0.282, 551.675 0.580, 547 1.084 M 568 9.603 C 566.625 9.769, 560.550 10.237, 554.500 10.641 L 543.500 11.377 562.763 12.587 C 573.357 13.253, 585.957 14.337, 590.763 14.996 C 630.297 20.424, 666.205 34.062, 695.345 54.719 C 706.372 62.536, 727 83.370, 735.228 95 C 756.043 124.420, 766.311 160.546, 764.646 198.500 C 761.450 271.402, 718.949 345.162, 647.240 402.259 C 550.615 479.195, 420.610 509.637, 322.013 478.416 C 302.448 472.221, 284.797 464.019, 267 452.852 L 263.500 450.656 267.500 454.922 C 273.657 461.488, 289.606 474.015, 300.069 480.503 C 338.742 504.484, 385.447 516.006, 438.500 514.655 C 467.472 513.917, 486.520 511.333, 514.500 504.346 C 570.529 490.354, 624.639 463.576, 670 427.393 C 694.930 407.507, 725.012 375.634, 743.304 349.724 C 792.004 280.742, 807.998 202.852, 786.875 137.523 C 783.033 125.640, 772.564 104.492, 765.604 94.555 C 735.133 51.050, 683.973 21.502, 623.593 12.537 C 605.753 9.888, 577.817 8.413, 568 9.603 M 534.200 13.200 C 532.717 14.683, 532.628 18.652, 534.057 19.535 C 534.638 19.894, 536.163 19.925, 537.446 19.603 C 539.219 19.158, 539.878 18.174, 540.189 15.509 C 540.564 12.292, 540.382 12, 537.999 12 C 536.570 12, 534.860 12.540, 534.200 13.200 M 430.802 32.163 L 424.104 35.220 425.715 39.360 C 426.601 41.637, 427.447 43.657, 427.596 43.850 C 427.744 44.042, 429.414 43.688, 431.306 43.064 C 434.312 42.072, 434.815 41.419, 435.288 37.887 C 435.587 35.664, 436.544 33.057, 437.415 32.094 C 439.118 30.212, 439.460 28.968, 438.250 29.053 C 437.837 29.082, 434.486 30.482, 430.802 32.163" stroke="none" fill="#fbfbfa" fill-rule="evenodd"/><path d="M 550.500 10.858 C 545.677 11.374, 547.757 11.645, 561.108 12.238 C 609.450 14.387, 650.026 25.838, 683.961 46.910 C 750.302 88.104, 779.366 162.629, 759.561 240.760 C 747.811 287.112, 720.382 332.616, 679.522 373.543 C 615.526 437.644, 530.420 478.648, 439.500 489.187 C 423.252 491.070, 382.477 490.754, 367 488.626 C 349.524 486.222, 333.797 482.612, 317.808 477.331 C 303.940 472.752, 282.683 463.040, 272.870 456.800 C 264.700 451.606, 264.107 451.476, 269 455.951 C 299.312 483.677, 337.798 501.669, 383.547 509.500 C 454.432 521.633, 538.262 505.952, 609.500 467.234 C 696.606 419.891, 764.320 340.577, 786.851 259.500 C 800.840 209.160, 798.567 163.355, 779.974 120.948 C 766.625 90.501, 741.175 62.027, 710.862 43.624 C 693.039 32.803, 668.951 23.038, 646.446 17.510 C 625.367 12.332, 611.714 10.826, 583 10.508 C 568.425 10.347, 553.800 10.505, 550.500 10.858 M 512.235 13.543 C 506.872 15.798, 506.241 24.673, 511.318 26.449 C 515.441 27.890, 519.242 25.471, 520.445 20.639 C 522.011 14.355, 518.179 11.044, 512.235 13.543 M 534.567 13.926 C 531.281 17.557, 534.831 22.045, 538.548 18.960 C 540.482 17.355, 540.400 13.368, 538.418 12.607 C 536.332 11.806, 536.554 11.730, 534.567 13.926 M 478.400 20.400 C 473.073 25.727, 473.808 33.691, 479.818 35.787 C 483.887 37.205, 487.640 36.206, 491.049 32.797 C 494.751 29.095, 495.183 22.647, 491.961 19.189 C 488.646 15.630, 482.633 16.167, 478.400 20.400 M 444.500 25.959 C 441.695 27.127, 437.327 31.972, 436.064 35.315 C 432.267 45.362, 438.445 53.452, 448.477 51.570 C 454.798 50.384, 461 43.136, 461 36.933 C 461 28.800, 452.021 22.828, 444.500 25.959 M 404.366 44.919 C 398.797 48.314, 395.664 53.492, 395.187 60.091 C 394.698 66.851, 396.134 69.891, 401.304 73.044 C 416.430 82.266, 434.752 57.912, 421.794 45.808 C 419.234 43.416, 417.952 43.001, 413.144 43.004 C 409.353 43.006, 406.471 43.635, 404.366 44.919 M 360.615 69.472 C 355.905 71.151, 349.589 77.069, 346.710 82.500 C 345.246 85.263, 344.576 88.379, 344.545 92.573 C 344.465 103.364, 351.086 110, 361.933 110 C 368.138 110, 372.415 108.330, 377.382 103.970 C 386.704 95.784, 388.682 82.263, 381.716 74.330 C 376.314 68.177, 368.984 66.490, 360.615 69.472 M 317.332 106.904 C 309.070 109.015, 300.411 116.557, 296.753 124.826 C 293.838 131.415, 294.547 142.206, 298.262 147.820 C 305.570 158.864, 322.440 159.455, 334.254 149.082 C 343.229 141.202, 346.655 126.342, 341.672 116.907 C 337.515 109.036, 326.579 104.542, 317.332 106.904 M 273.863 157.567 C 254.198 163.622, 242.693 187.630, 251.604 204.020 C 256.643 213.287, 265.231 217.696, 276.307 216.701 C 292.449 215.251, 306.912 200.247, 307.830 183.997 C 308.389 174.109, 306.731 169.387, 300.605 163.418 C 293.193 156.196, 284.497 154.293, 273.863 157.567 M 618.275 169.908 C 613.080 171.244, 610.174 173.713, 609.055 177.741 C 608.362 180.238, 608.009 215.497, 608.006 282.782 C 608 393.108, 607.782 388.845, 613.622 392.672 C 615.924 394.180, 618.464 394.500, 628.133 394.500 C 638.468 394.500, 640.187 394.252, 642.677 392.404 C 644.230 391.251, 646.056 389.226, 646.735 387.904 C 648.535 384.401, 648.533 179.612, 646.733 176.055 C 644.527 171.697, 639.742 169.775, 630.186 169.410 C 625.409 169.228, 620.049 169.452, 618.275 169.908 M 75.500 170.696 C 64.864 171.258, 48.737 174.110, 39.492 177.062 C 19.580 183.421, 6.944 194.866, 1.884 211.125 C -0.844 219.891, -0.844 248.109, 1.884 256.875 C 4.473 265.192, 7.861 270.633, 14.154 276.579 C 20.553 282.625, 26.130 286.009, 35.510 289.540 C 53.868 296.450, 71.652 297.979, 133.792 297.991 C 171.173 297.998, 180.422 298.276, 186.742 299.582 C 198.444 301.999, 205.673 306.161, 209.745 312.826 C 211.750 316.107, 211.990 317.816, 211.995 328.800 C 212.001 342.830, 211.337 344.844, 204.888 350.364 C 199.870 354.659, 191.447 357.574, 180.026 358.967 C 174.829 359.600, 139.910 360, 89.727 360 C -0.351 360, 3.330 359.746, 1.108 366.119 C -0.322 370.223, -0.322 383.777, 1.108 387.881 C 3.333 394.263, -0.576 394, 91.990 394 C 144.623 394, 179.711 393.602, 185.789 392.937 C 197.525 391.652, 210.149 389.185, 211.450 387.922 C 211.973 387.415, 213.383 387, 214.584 387 C 218.524 387, 232.900 378.987, 238.860 373.469 C 245.579 367.248, 250.301 359.068, 252.460 349.907 C 254.260 342.273, 254.530 318.270, 252.916 309.434 C 250.109 294.063, 240.444 282.114, 224.793 274.662 C 204.148 264.831, 196.524 263.941, 125.500 263.066 C 69.428 262.376, 67.277 262.279, 60.792 260.149 C 52.765 257.512, 46.327 252.847, 43.272 247.453 C 41.407 244.161, 41.030 241.964, 41.016 234.315 C 40.998 223.785, 41.862 220.820, 46.311 216.161 C 54.698 207.378, 65.123 205.121, 100.898 204.343 C 130.452 203.701, 131.202 203.535, 132.945 197.259 C 134.457 191.813, 134.235 180.499, 132.536 176.432 C 130.086 170.569, 127.241 169.972, 102.782 170.189 C 91.077 170.293, 78.800 170.521, 75.500 170.696 M 577 204.500 C 577 204.775, 577.225 205, 577.500 205 C 577.775 205, 578 204.775, 578 204.500 C 578 204.225, 577.775 204, 577.500 204 C 577.225 204, 577 204.225, 577 204.500 M 345.500 219.966 C 302.127 222.834, 278.362 237.549, 274.035 264.217 C 272.391 274.343, 272.735 343.084, 274.469 351.270 C 279.522 375.116, 300.247 388.957, 336.789 392.892 C 342.813 393.541, 366.529 394, 394 394 C 421.471 394, 445.187 393.541, 451.211 392.892 C 464.504 391.461, 478.661 387.858, 487.515 383.653 C 495.931 379.657, 505.553 371.074, 509.265 364.255 C 514.696 354.275, 515.002 351.185, 514.976 306.540 C 514.961 282.519, 514.532 263.680, 513.939 261.112 C 510.855 247.731, 501.570 236.733, 487.757 230.098 C 478.518 225.660, 471.613 223.689, 457.277 221.395 C 446.027 219.596, 366.478 218.578, 345.500 219.966 M 552.380 220.873 C 550.114 221.273, 547.038 222.400, 545.546 223.378 C 539.879 227.091, 539.995 225.310, 540.056 307.718 C 540.098 363.736, 540.424 384.388, 541.306 386.906 C 543.378 392.818, 546.673 394.376, 558.074 394.834 C 570.053 395.315, 576.139 393.567, 578.521 388.959 C 579.789 386.507, 580 374.966, 580 308 C 580 221.663, 580.267 225.263, 573.665 222.505 C 569.639 220.822, 557.810 219.916, 552.380 220.873 M 337.500 253.631 C 327.966 255.708, 319.423 260.404, 316.129 265.378 C 313.500 269.348, 313.500 269.348, 313.203 295.803 L 312.905 322.257 316.030 319.628 C 320.698 315.701, 323.418 315.391, 329.845 318.055 C 332.935 319.335, 336.931 320.342, 338.725 320.291 C 343.854 320.145, 350.742 315.446, 360.656 305.328 C 369.041 296.771, 370.248 295.901, 374.987 295.002 C 380.997 293.863, 384.617 291.534, 389.017 285.979 C 390.752 283.788, 393.210 281.734, 394.478 281.416 C 397.987 280.535, 402.380 283.372, 406.562 289.220 C 412.380 297.358, 417.143 302, 419.671 302 C 421.258 302, 423.154 300.353, 426 296.500 C 428.235 293.475, 430.614 291, 431.286 291 C 431.959 291, 435.744 293.433, 439.696 296.406 C 448.525 303.048, 454.964 305.541, 466.281 306.702 L 475 307.596 474.996 288.548 C 474.993 271.383, 474.798 269.182, 473.029 266.280 C 470.270 261.755, 463.795 257.356, 456.085 254.769 C 449.663 252.614, 448.198 252.553, 397 252.333 C 353.062 252.143, 343.358 252.355, 337.500 253.631 M 440.200 314.200 C 438.542 315.858, 438.696 319.503, 440.487 320.989 C 442.493 322.654, 446.640 321.484, 447.270 319.076 C 448.362 314.898, 443.118 311.282, 440.200 314.200 M 383.200 316.200 C 380.282 319.118, 383.898 324.362, 388.076 323.270 C 390.484 322.640, 391.654 318.493, 389.989 316.487 C 388.503 314.696, 384.858 314.542, 383.200 316.200 M 409.389 317.430 C 408.393 320.025, 409.788 322.169, 412.246 321.820 C 413.898 321.585, 414.500 320.833, 414.500 319 C 414.500 317.167, 413.898 316.415, 412.246 316.180 C 410.893 315.988, 409.750 316.488, 409.389 317.430 M 330.695 332.111 C 326.079 334.796, 326.642 342.604, 331.615 344.870 C 335.086 346.452, 336.351 346.298, 339.365 343.927 C 344.537 339.860, 341.697 330.959, 335.250 331.030 C 333.738 331.047, 331.688 331.533, 330.695 332.111 M 427.500 333.195 C 424.771 334.743, 424.033 336.024, 424.015 339.250 C 423.983 345.071, 430.546 347.935, 434.811 343.961 C 437.880 341.102, 437.680 336.680, 434.365 334.073 C 431.378 331.723, 430.332 331.589, 427.500 333.195 M 359 335.927 C 359 337.358, 359.642 338, 361.073 338 C 362.504 338, 363.043 337.461, 362.812 336.261 C 362.310 333.655, 359 333.364, 359 335.927 M 460.408 336.500 C 458.891 338.816, 458.891 339.184, 460.408 341.500 C 462.291 344.374, 466.048 344.809, 468.429 342.429 C 470.516 340.341, 470.416 337.686, 468.171 335.655 C 465.530 333.265, 462.297 333.617, 460.408 336.500 M 390.667 338.667 C 390.300 339.033, 390 340.383, 390 341.667 C 390 343.461, 390.553 344, 392.393 344 C 393.709 344, 395.067 343.268, 395.410 342.373 C 396.471 339.610, 392.683 336.650, 390.667 338.667 M 370.200 356.200 C 369.540 356.860, 369 358.435, 369 359.700 C 369 361.793, 369.449 362, 374 362 C 378.551 362, 379 361.793, 379 359.700 C 379 356.681, 377.212 355, 374 355 C 372.570 355, 370.860 355.540, 370.200 356.200 M 407.200 357.200 C 406.540 357.860, 406 359.210, 406 360.200 C 406 361.667, 406.833 362, 410.500 362 C 415.362 362, 416.355 360.498, 413.429 357.571 C 411.557 355.700, 408.861 355.539, 407.200 357.200 M 733 488 L 733 513 737.500 513 L 742 513 742 505.344 C 742 498.589, 742.314 497.277, 744.669 494.189 L 747.339 490.689 752.600 501.844 L 757.861 513 762.930 513 C 766.021 513, 768 512.561, 768 511.874 C 768 511.255, 764.850 504.787, 761 497.500 C 757.150 490.213, 754 483.697, 754 483.019 C 754 482.342, 756.925 478.042, 760.500 473.463 C 764.075 468.885, 767 464.658, 767 464.070 C 767 463.444, 764.823 463.008, 761.750 463.019 L 756.500 463.038 749.500 472.949 L 742.500 482.861 742.215 472.930 L 741.930 463 737.465 463 L 733 463 733 488 M 779.450 464.271 C 779.181 464.970, 779.083 476.107, 779.231 489.021 L 779.500 512.500 783.500 512.500 L 787.500 512.500 788 498.545 L 788.500 484.590 795.327 498.849 L 802.154 513.107 806.327 512.804 L 810.500 512.500 810.500 488 L 810.500 463.500 806.500 463.500 L 802.500 463.500 802 477.879 L 801.500 492.259 794.607 477.629 L 787.715 463 783.826 463 C 781.604 463, 779.728 463.545, 779.450 464.271 M 835.445 463.959 C 831.921 465.386, 827.153 471.746, 825.543 477.167 C 821.438 490.989, 825.806 506.745, 835.069 511.536 C 838.664 513.395, 847.279 513.427, 850.800 511.595 C 857.130 508.301, 860.527 502.076, 861.575 491.848 C 862.796 479.930, 859.297 470.138, 852.078 465.274 C 849.522 463.551, 847.346 463.015, 843.102 463.063 C 840.021 463.098, 836.575 463.501, 835.445 463.959 M 871.423 465.750 C 872.675 471.675, 880 511.338, 880 512.197 C 880 512.699, 882.138 512.972, 884.750 512.805 L 889.500 512.500 892.970 495.500 C 894.878 486.150, 896.618 479.400, 896.838 480.500 C 897.057 481.600, 898.666 489.250, 900.414 497.500 L 903.591 512.500 908.107 512.797 L 912.623 513.094 916.972 489.797 C 919.364 476.984, 921.526 465.712, 921.777 464.750 C 922.163 463.270, 921.521 463, 917.617 463 C 915.077 463, 912.999 463.337, 912.997 463.750 C 912.992 464.935, 910.058 481.933, 908.811 488 L 907.681 493.500 904.590 478.500 L 901.500 463.500 896.551 463.500 L 891.602 463.500 888.460 478.500 C 885.018 494.925, 885.266 494.946, 882.500 478 C 879.837 461.681, 880.466 463, 875.341 463 C 870.958 463, 870.856 463.071, 871.423 465.750 M 973.450 464.271 C 973.181 464.970, 973.083 476.107, 973.231 489.021 L 973.500 512.500 988.250 512.777 L 1003 513.053 1003 508.027 L 1003 503 992.500 503 L 982 503 982 497 L 982 491 991.500 491 L 1001 491 1001 486.500 L 1001 482 991.500 482 L 982 482 982 477.500 L 982 473 992 473 L 1002 473 1002 468 L 1002 463 987.969 463 C 977.544 463, 973.812 463.327, 973.450 464.271 M 1017 488 L 1017 513 1024.750 512.976 C 1035.657 512.943, 1039.913 511.744, 1043.677 507.647 C 1047.734 503.230, 1048.989 498.590, 1048.989 488 C 1048.989 477.410, 1047.734 472.770, 1043.677 468.353 C 1039.913 464.256, 1035.657 463.057, 1024.750 463.024 L 1017 463 1017 488 M 1071.922 465.274 C 1065.134 469.848, 1062.011 477.009, 1062.011 488 C 1062.011 498.991, 1065.134 506.152, 1071.922 510.726 C 1077.121 514.230, 1085.876 513.912, 1092.750 509.970 L 1098 506.960 1098 496.480 L 1098 486 1089.500 486 L 1081 486 1081 490.500 C 1081 495, 1081 495, 1085 495 C 1088.770 495, 1089 495.171, 1089 497.974 C 1089 500.257, 1088.314 501.304, 1086.050 502.474 C 1077.154 507.074, 1071 500.821, 1071 487.180 C 1071 481.669, 1071.455 479.621, 1073.281 476.911 C 1077.476 470.686, 1084.975 470.484, 1088.002 476.515 C 1089.446 479.390, 1089.672 479.473, 1093.737 478.615 C 1097.646 477.790, 1097.922 477.524, 1097.356 475.111 C 1096.382 470.962, 1093.387 466.646, 1090.165 464.750 C 1085.671 462.105, 1076.221 462.377, 1071.922 465.274 M 1112.450 464.271 C 1112.181 464.970, 1112.083 476.107, 1112.231 489.021 L 1112.500 512.500 1127.250 512.777 L 1142 513.053 1142 508.027 L 1142 503 1131.500 503 L 1121 503 1121 497 L 1121 491 1130.500 491 L 1140 491 1140 486.500 L 1140 482 1130.500 482 L 1121 482 1121 477.500 L 1121 473 1131 473 L 1141 473 1141 468 L 1141 463 1126.969 463 C 1116.544 463, 1112.812 463.327, 1112.450 464.271 M 1187.750 464.080 C 1185.454 465.417, 1183 470.248, 1183 473.430 C 1183 474.821, 1183.735 477.797, 1184.634 480.044 C 1186.268 484.128, 1186.268 484.128, 1183.055 487.443 C 1176.229 494.486, 1177.264 507.499, 1184.967 511.483 C 1189.329 513.739, 1197.155 513.453, 1200.375 510.920 L 1203.020 508.839 1206.190 511.507 L 1209.360 514.174 1211.164 511.837 C 1214.372 507.680, 1214.444 505.929, 1211.506 503.586 C 1208.796 501.426, 1208.796 501.426, 1210.338 496.235 C 1211.987 490.682, 1211.851 490.391, 1206.967 488.991 C 1204.707 488.342, 1204 488.466, 1204 489.511 C 1204 492.294, 1202.037 491.972, 1200.464 488.931 C 1198.934 485.973, 1198.953 485.675, 1200.797 483.648 C 1203.895 480.241, 1205 477.439, 1205 472.989 C 1205 469.743, 1204.367 468.213, 1202.077 465.923 C 1199.640 463.486, 1198.351 463.005, 1194.327 463.030 C 1191.672 463.047, 1188.712 463.519, 1187.750 464.080 M 1250.500 464.140 C 1250.204 464.911, 1250.083 476.107, 1250.231 489.021 L 1250.500 512.500 1260.500 512.500 C 1272.857 512.500, 1276.268 510.923, 1280 503.483 C 1282.192 499.115, 1282.500 497.204, 1282.500 488 C 1282.500 478.786, 1282.194 476.894, 1280 472.552 C 1276.126 464.884, 1273.900 463.756, 1261.563 463.208 C 1253.141 462.833, 1250.930 463.020, 1250.500 464.140 M 1307.676 463.750 C 1307.106 464.718, 1293 511.388, 1293 512.306 C 1293 512.688, 1294.993 513, 1297.429 513 C 1301.858 513, 1301.858 513, 1303.457 507.500 L 1305.056 502 1312.383 502 L 1319.711 502 1321.109 507.250 C 1322.508 512.500, 1322.508 512.500, 1327.384 512.810 C 1331.071 513.045, 1332.145 512.801, 1331.789 511.810 C 1331.529 511.090, 1328.008 499.813, 1323.963 486.750 L 1316.610 463 1312.364 463 C 1310.029 463, 1307.919 463.337, 1307.676 463.750 M 1336.408 464.379 C 1336.106 465.166, 1336.003 467.315, 1336.180 469.155 C 1336.498 472.483, 1336.529 472.502, 1342.250 472.800 L 1348 473.100 1348 493.050 L 1348 513 1352 513 L 1356 513 1356 493.050 L 1356 473.100 1361.750 472.800 L 1367.500 472.500 1367.500 468 L 1367.500 463.500 1352.229 463.224 C 1339.721 462.998, 1336.858 463.207, 1336.408 464.379 M 1386.676 463.750 C 1386.106 464.718, 1372 511.388, 1372 512.306 C 1372 512.688, 1373.993 513, 1376.429 513 C 1380.858 513, 1380.858 513, 1382.457 507.500 L 1384.056 502 1391.383 502 L 1398.711 502 1400.109 507.250 C 1401.508 512.500, 1401.508 512.500, 1406.384 512.810 C 1410.071 513.045, 1411.145 512.801, 1410.789 511.810 C 1410.529 511.090, 1407.008 499.813, 1402.963 486.750 L 1395.610 463 1391.364 463 C 1389.029 463, 1386.919 463.337, 1386.676 463.750 M 1446.450 464.271 C 1446.181 464.970, 1446.083 476.107, 1446.231 489.021 L 1446.500 512.500 1450.750 512.807 L 1455 513.115 1455 502.557 L 1455 492 1463 492 L 1471 492 1471 487.500 L 1471 483 1463 483 L 1455 483 1455 478 L 1455 473 1464 473 L 1473 473 1473 468 L 1473 463 1459.969 463 C 1450.353 463, 1446.809 463.333, 1446.450 464.271 M 1534.898 465.251 C 1532.923 466.559, 1530.348 469.776, 1528.750 472.930 C 1526.315 477.736, 1526 479.465, 1526 488 C 1526 496.535, 1526.315 498.264, 1528.750 503.070 C 1532.711 510.889, 1536.690 513.272, 1545.022 512.817 C 1553.036 512.379, 1556.857 509.962, 1560.159 503.243 C 1563.245 496.964, 1563.954 483.388, 1561.571 476.215 C 1559.849 471.029, 1555.085 465.363, 1551.208 463.889 C 1546.674 462.165, 1538.529 462.845, 1534.898 465.251 M 1573 464.541 C 1573 466.306, 1580.749 508.297, 1581.619 511.250 C 1582.008 512.569, 1583.205 513, 1586.485 513 C 1591.438 513, 1590.320 515.678, 1595.148 492.250 C 1596.423 486.063, 1597.706 481, 1597.998 481 C 1598.290 481, 1599.559 486.040, 1600.818 492.200 C 1605.557 515.390, 1604.552 513, 1609.564 513 C 1613.308 513, 1614.038 512.665, 1614.470 510.750 C 1615.613 505.689, 1623 465.345, 1623 464.162 C 1623 463.279, 1621.698 462.980, 1618.779 463.193 L 1614.558 463.500 1612.090 478.228 C 1610.733 486.328, 1609.429 492.762, 1609.191 492.525 C 1608.954 492.288, 1607.913 487.910, 1606.876 482.797 C 1605.840 477.684, 1604.512 471.137, 1603.925 468.250 L 1602.858 463 1597.929 463 C 1595.218 463, 1593 463.163, 1593 463.362 C 1593 464.060, 1588.126 487.649, 1587.380 490.561 C 1586.786 492.881, 1586.085 490.341, 1584.052 478.500 L 1581.477 463.500 1577.238 463.193 C 1573.836 462.946, 1573 463.212, 1573 464.541 M 1638.451 466.250 C 1636.095 468.425, 1634.737 470.722, 1634.344 473.194 C 1632.845 482.623, 1636.950 488.489, 1647.503 492.001 C 1654.634 494.374, 1656.537 496.459, 1655.077 500.298 C 1652.760 506.391, 1642.979 504.735, 1641.500 497.999 C 1640.825 494.925, 1639.606 494.463, 1635.250 495.630 C 1631.017 496.765, 1633.208 505.473, 1638.941 510.297 C 1641.674 512.597, 1643.074 512.999, 1648.327 512.996 C 1658.951 512.990, 1664 508.061, 1664 497.698 C 1664 493.736, 1663.394 491.397, 1661.727 488.924 C 1659.212 485.190, 1657.195 483.944, 1648.801 480.936 C 1642.821 478.794, 1640.793 476.159, 1643.040 473.452 C 1644.516 471.674, 1651.374 471.531, 1652.770 473.250 C 1653.328 473.938, 1653.952 475.400, 1654.156 476.500 C 1654.360 477.600, 1655.084 478.455, 1655.764 478.400 C 1656.444 478.345, 1658.350 478.233, 1660 478.150 C 1662.597 478.020, 1663 477.617, 1663 475.148 C 1663 471.664, 1659.320 465.975, 1655.970 464.279 C 1654.611 463.592, 1650.906 463.023, 1647.735 463.015 C 1642.610 463.002, 1641.580 463.361, 1638.451 466.250 M 933 488.528 L 933 513.056 946.750 512.778 L 960.500 512.500 960.500 508 L 960.500 503.500 951.250 503.212 L 942 502.925 942 483.462 L 942 464 937.500 464 L 933 464 933 488.528 M 1487 488.500 L 1487 513 1500.500 513 L 1514 513 1514 508 L 1514 503 1504.500 503 L 1495 503 1495 483.500 L 1495 464 1491 464 L 1487 464 1487 488.500 M 1191.964 472.067 C 1190.447 474.903, 1193.377 479.762, 1195.528 477.977 C 1197.625 476.236, 1198.317 473.086, 1196.960 471.452 C 1195.260 469.403, 1193.258 469.650, 1191.964 472.067 M 837.669 474.045 C 830.324 479.824, 832.153 500.662, 840.250 503.442 C 844.120 504.771, 848.013 503.141, 850.292 499.239 C 852.684 495.144, 853.571 485.788, 852.087 480.304 C 850.054 472.788, 843.103 469.771, 837.669 474.045 M 1540 473.282 C 1535.454 476.974, 1533.479 484.895, 1535.021 493.250 C 1537.153 504.799, 1547.530 507.611, 1552.506 497.989 C 1554.517 494.100, 1554.485 481.824, 1552.452 477.540 C 1550.123 472.633, 1543.562 470.389, 1540 473.282 M 1025 487.950 L 1025 503 1030.250 502.985 C 1033.138 502.976, 1035.995 502.639, 1036.600 502.235 C 1039.291 500.438, 1040.390 496.190, 1040.358 487.706 C 1040.314 475.959, 1038.755 473.631, 1030.648 473.200 L 1025 472.900 1025 487.950 M 1259 488 L 1259 503 1264.345 503 C 1271.692 503, 1273.158 501.226, 1273.776 491.586 C 1274.694 477.287, 1272.439 473, 1264 473 L 1259 473 1259 488 M 1311.657 479 C 1310.112 483.108, 1307.874 492.207, 1308.303 492.637 C 1308.572 492.905, 1310.543 492.985, 1312.684 492.813 L 1316.577 492.500 1314.399 485 C 1313.188 480.829, 1311.971 478.166, 1311.657 479 M 1390.657 479 C 1389.112 483.108, 1386.874 492.207, 1387.303 492.637 C 1387.572 492.905, 1389.543 492.985, 1391.684 492.813 L 1395.577 492.500 1393.399 485 C 1392.188 480.829, 1390.971 478.166, 1390.657 479 M 1188.557 493.223 C 1186.448 496.234, 1186.584 501.314, 1188.829 503.345 C 1191.175 505.469, 1193.256 505.441, 1195.855 503.250 C 1197.932 501.500, 1197.932 501.500, 1194.725 496.250 C 1192.961 493.363, 1191.202 491, 1190.816 491 C 1190.429 491, 1189.413 492, 1188.557 493.223" stroke="none" fill="#7e5f2f" fill-rule="evenodd"/></svg>